<svg width="127" height="166" viewBox="0 0 127 166" fill="none" xmlns="http://www.w3.org/2000/svg">
<path d="M64.6155 83.5387C77.0371 83.5387 87.1064 73.4694 87.1064 61.0478C87.1064 48.6262 77.0371 38.557 64.6155 38.557C52.1939 38.557 42.1246 48.6262 42.1246 61.0478C42.1246 73.4694 52.1939 83.5387 64.6155 83.5387Z" fill="url(#paint0_linear_160_286)"/>
<path d="M24.7082 165.755C28.0904 165.747 31.4287 164.991 34.4845 163.543C37.5404 162.095 40.2387 159.99 42.3864 157.378L42.3908 157.543C44.9562 154.504 48.1546 152.062 51.7624 150.387C55.3701 148.713 59.3003 147.847 63.2787 147.849C67.2569 147.851 71.187 148.721 74.795 150.399C78.403 152.077 81.6017 154.522 84.1676 157.564L84.1631 157.399C87.2012 161.065 91.2959 163.705 95.888 164.96C100.481 166.214 105.347 166.022 109.825 164.409C114.302 162.796 118.172 159.841 120.908 155.947C123.643 152.053 125.109 147.409 125.108 142.649C125.107 137.889 123.637 133.244 120.9 129.349C118.163 125.453 114.291 122.496 109.813 120.88C105.334 119.264 100.467 119.069 95.876 120.321C91.2837 121.573 87.1906 124.211 84.1547 127.875L84.1546 127.715C81.5899 130.753 78.3923 133.194 74.7858 134.868C71.1792 136.543 67.2505 137.41 63.2734 137.409C59.2964 137.408 55.3669 136.538 51.7597 134.862C48.1522 133.186 44.9532 130.743 42.3868 127.703V127.863C39.8935 124.879 36.6872 122.572 33.0658 121.156C29.4444 119.74 25.5244 119.26 21.6694 119.762C17.8148 120.264 14.1493 121.731 11.0135 124.027C7.87721 126.323 5.37191 129.374 3.72971 132.897C2.08711 136.42 1.36094 140.301 1.618 144.18C1.87462 148.06 3.10671 151.812 5.19951 155.09C7.29271 158.367 10.1788 161.064 13.5903 162.93C17.0022 164.796 20.8292 165.771 24.717 165.764L24.7082 165.755Z" fill="url(#paint1_linear_160_286)"/>
<path d="M3.56677 59.8108C3.56677 67.6654 5.11377 75.4429 8.11957 82.6996C11.1254 89.9562 15.531 96.5496 21.0849 102.104C26.6388 107.657 33.2323 112.063 40.4889 115.069C47.7454 118.075 55.5229 119.622 63.3776 119.622C71.2318 119.622 79.0093 118.075 86.266 115.069C93.523 112.063 100.116 107.657 105.67 102.104C111.224 96.5496 115.629 89.9562 118.635 82.6996C121.641 75.4429 123.188 67.6654 123.188 59.8108H104.497C98.304 59.8108 93.473 65.0012 91.2046 70.7642C91.1402 70.9284 91.0739 71.0919 91.0064 71.2554C89.5035 74.8835 87.3008 78.1804 84.5236 80.9572C81.7468 83.734 78.4499 85.9371 74.8218 87.44C71.1936 88.9429 67.3049 89.7164 63.3776 89.7164C59.4502 89.7164 55.5615 88.9429 51.9334 87.44C48.3049 85.9371 45.0083 83.734 42.2311 80.9572C39.4542 78.1804 37.2514 74.8835 35.7486 71.2554C34.2456 67.6268 33.4721 63.7381 33.4721 59.8108H3.56677Z" fill="url(#paint2_linear_160_286)"/>
<path d="M3.57239 59.8108C3.57239 26.7781 30.3505 0 63.3828 0C68.5547 0 73.5732 0.656401 78.3599 1.89049C68.089 4.53638 58.6142 9.89097 50.9867 17.5182C39.7701 28.7348 33.4687 43.9481 33.4687 59.8108H3.57239Z" fill="url(#paint3_linear_160_286)"/>
<defs>
<linearGradient id="paint0_linear_160_286" x1="64.6155" y1="61.6896" x2="83.5" y2="80.5741" gradientUnits="userSpaceOnUse">
<stop stop-color="#2298B6"/>
<stop offset="1" stop-color="#FF7815"/>
</linearGradient>
<linearGradient id="paint1_linear_160_286" x1="27.6742" y1="106.983" x2="99.017" y2="178.326" gradientUnits="userSpaceOnUse">
<stop stop-color="#3CBBDB"/>
<stop offset="1" stop-color="#FF7815"/>
</linearGradient>
<linearGradient id="paint2_linear_160_286" x1="3.56677" y1="59.7618" x2="148.152" y2="121.451" gradientUnits="userSpaceOnUse">
<stop stop-color="#2298B6"/>
<stop offset="1" stop-color="#FF7815"/>
</linearGradient>
<linearGradient id="paint3_linear_160_286" x1="40.9662" y1="2.31981e-10" x2="41" y2="107" gradientUnits="userSpaceOnUse">
<stop stop-color="#3CBBDB"/>
<stop offset="1" stop-color="#FF7815"/>
</linearGradient>
</defs>
</svg>
