<svg width="143" height="214" viewBox="0 0 143 214" fill="none" xmlns="http://www.w3.org/2000/svg">
<path d="M72.6155 83.5387C85.0371 83.5387 95.1064 73.4694 95.1064 61.0478C95.1064 48.6262 85.0371 38.557 72.6155 38.557C60.1939 38.557 50.1246 48.6262 50.1246 61.0478C50.1246 73.4694 60.1939 83.5387 72.6155 83.5387Z" fill="url(#paint0_linear_102_522)"/>
<path d="M32.7082 165.755C36.0904 165.747 39.4287 164.991 42.4845 163.543C45.5404 162.095 48.2387 159.99 50.3864 157.378L50.3908 157.543C52.9562 154.504 56.1546 152.062 59.7624 150.387C63.3701 148.713 67.3003 147.847 71.2787 147.849C75.2569 147.851 79.187 148.721 82.795 150.399C86.403 152.077 89.6017 154.522 92.1676 157.564L92.1631 157.399C95.2012 161.065 99.2959 163.705 103.888 164.96C108.481 166.214 113.347 166.022 117.825 164.409C122.302 162.796 126.172 159.841 128.908 155.947C131.643 152.053 133.109 147.409 133.108 142.649C133.107 137.889 131.637 133.244 128.9 129.349C126.163 125.453 122.291 122.496 117.813 120.88C113.334 119.264 108.467 119.069 103.876 120.321C99.2837 121.573 95.1906 124.211 92.1547 127.875L92.1546 127.715C89.5899 130.753 86.3923 133.194 82.7858 134.868C79.1792 136.543 75.2505 137.41 71.2734 137.409C67.2964 137.408 63.3669 136.538 59.7597 134.862C56.1522 133.186 52.9532 130.743 50.3868 127.703L50.3868 127.863C47.8935 124.879 44.6872 122.572 41.0658 121.156C37.4444 119.74 33.5244 119.26 29.6694 119.762C25.8148 120.264 22.1493 121.731 19.0135 124.027C15.8772 126.323 13.3719 129.374 11.7297 132.897C10.0871 136.42 9.36093 140.301 9.61799 144.18C9.87461 148.06 11.1067 151.812 13.1995 155.09C15.2927 158.367 18.1788 161.064 21.5903 162.93C25.0022 164.796 28.8292 165.771 32.717 165.764L32.7082 165.755Z" fill="url(#paint1_linear_102_522)"/>
<path d="M11.5668 59.8108C11.5668 67.6654 13.1138 75.4429 16.1196 82.6996C19.1254 89.9562 23.531 96.5496 29.0849 102.104C34.6388 107.657 41.2323 112.063 48.4889 115.069C55.7454 118.075 63.5229 119.622 71.3776 119.622C79.2318 119.622 87.0093 118.075 94.266 115.069C101.523 112.063 108.116 107.657 113.67 102.104C119.224 96.5496 123.629 89.9562 126.635 82.6996C129.641 75.4429 131.188 67.6654 131.188 59.8108H112.497C106.304 59.8108 101.473 65.0012 99.2046 70.7642C99.1402 70.9284 99.0739 71.0919 99.0064 71.2554C97.5035 74.8835 95.3008 78.1804 92.5236 80.9572C89.7468 83.734 86.4499 85.9371 82.8218 87.44C79.1936 88.9429 75.3049 89.7164 71.3776 89.7164C67.4502 89.7164 63.5615 88.9429 59.9334 87.44C56.3049 85.9371 53.0083 83.734 50.2311 80.9572C47.4542 78.1804 45.2514 74.8835 43.7486 71.2554C42.2456 67.6268 41.4721 63.7381 41.4721 59.8108H11.5668Z" fill="url(#paint2_linear_102_522)"/>
<path d="M11.5724 59.8108C11.5724 26.7781 38.3505 0 71.3828 0C76.5547 0 81.5732 0.656401 86.3599 1.89049C76.089 4.53638 66.6142 9.89097 58.9867 17.5182C47.7701 28.7348 41.4687 43.9481 41.4687 59.8108H11.5724Z" fill="url(#paint3_linear_102_522)"/>
<defs>
<linearGradient id="paint0_linear_102_522" x1="72.6155" y1="61.6896" x2="91.5" y2="80.5741" gradientUnits="userSpaceOnUse">
<stop stop-color="#2298B6"/>
<stop offset="1" stop-color="#FF7815"/>
</linearGradient>
<linearGradient id="paint1_linear_102_522" x1="35.6742" y1="106.983" x2="107.017" y2="178.326" gradientUnits="userSpaceOnUse">
<stop stop-color="#3CBBDB"/>
<stop offset="1" stop-color="#FF7815"/>
</linearGradient>
<linearGradient id="paint2_linear_102_522" x1="11.5668" y1="59.7618" x2="156.152" y2="121.451" gradientUnits="userSpaceOnUse">
<stop stop-color="#2298B6"/>
<stop offset="1" stop-color="#FF7815"/>
</linearGradient>
<linearGradient id="paint3_linear_102_522" x1="48.9662" y1="0" x2="49" y2="107" gradientUnits="userSpaceOnUse">
<stop stop-color="#3CBBDB"/>
<stop offset="1" stop-color="#FF7815"/>
</linearGradient>
</defs>
</svg>
