<svg width="315" height="329" viewBox="0 0 315 329" fill="none" xmlns="http://www.w3.org/2000/svg">
<g clip-path="url(#clip0_21_112)">
<path d="M157.501 257.598C212.259 257.598 256.649 213.454 256.649 159C256.649 104.546 212.259 60.4024 157.501 60.4024C102.743 60.4024 58.3525 104.546 58.3525 159C58.3525 213.454 102.743 257.598 157.501 257.598Z" fill="#1BB1F8"/>
<mask id="mask0_21_112" style="mask-type:alpha" maskUnits="userSpaceOnUse" x="58" y="60" width="199" height="198">
<path d="M157.499 257.598C212.257 257.598 256.647 213.454 256.647 159C256.647 104.546 212.257 60.4024 157.499 60.4024C102.741 60.4024 58.3509 104.546 58.3509 159C58.3509 213.454 102.741 257.598 157.499 257.598Z" fill="#1BB1F8"/>
</mask>
<g mask="url(#mask0_21_112)">
<path d="M157.499 257.598C212.257 257.598 256.647 213.454 256.647 159C256.647 104.546 212.257 60.4024 157.499 60.4024C102.741 60.4024 58.3509 104.546 58.3509 159C58.3509 213.454 102.741 257.598 157.499 257.598Z" fill="#3CBBDB"/>
<path opacity="0.05" fill-rule="evenodd" clip-rule="evenodd" d="M60.9134 113.887H71.6272V95.764H71.2616C72.1823 94.4756 73.132 93.2091 74.1099 91.9656V93.2927H92.316V75.1695H90.7418C92.0672 74.1056 93.4201 73.0734 94.7988 72.0743V72.6982H113.004V61.5156C113.826 61.1449 114.654 60.7846 115.487 60.4348V72.6982H133.693V54.7065C134.517 54.5289 135.345 54.3611 136.176 54.2032V72.6982H154.382V52.3789C154.83 52.3732 155.278 52.3704 155.726 52.3704C156.107 52.3704 156.486 52.3724 156.864 52.3765V72.6982H175.071V54.1641C175.902 54.3203 176.73 54.4863 177.553 54.6621V72.6982H195.76V60.3483C196.592 60.6959 197.42 61.0541 198.242 61.4226V72.6982H216.448V71.9248C217.898 72.9703 219.319 74.0524 220.712 75.1695H218.931V93.2927H237.137V91.7034C238.188 93.0311 239.206 94.385 240.192 95.764H239.62V113.887H250.54C250.902 114.705 251.254 115.529 251.595 116.359H239.62V134.482H257.147C257.317 135.302 257.477 136.126 257.627 136.953H239.62V155.076H259.273C259.273 155.165 259.273 155.254 259.273 155.343C259.273 156.079 259.266 156.815 259.251 157.547H239.62V175.671H257.256C257.09 176.498 256.913 177.321 256.727 178.142H239.62V196.265H250.774C250.413 197.095 250.041 197.918 249.658 198.736H239.62V215.715C238.726 216.941 237.806 218.146 236.86 219.331H218.931V236.914C217.579 237.95 216.202 238.955 214.799 239.926H198.242V249.263C197.42 249.632 196.592 249.99 195.76 250.338V239.926H177.553V256.023C176.73 256.199 175.902 256.365 175.071 256.521V239.926H156.864V258.309C156.486 258.313 156.107 258.316 155.726 258.316C155.278 258.316 154.83 258.312 154.382 258.307V239.926H136.176V256.483C135.345 256.324 134.517 256.157 133.693 255.979V239.926H115.487V250.251C114.654 249.901 113.826 249.541 113.004 249.17V239.926H96.6541C95.1793 238.905 93.7327 237.847 92.316 236.754V219.331H74.5939C73.5749 218.055 72.5856 216.754 71.6272 215.43V198.736H61.7957C61.413 197.918 61.0406 197.095 60.679 196.265H71.6272V178.142H54.7266C54.5401 177.321 54.3636 176.498 54.197 175.671H71.6272V157.547H52.203C52.1875 156.815 52.1797 156.079 52.1797 155.343C52.1797 155.254 52.1799 155.165 52.1801 155.076H71.6272V136.953H53.8263C53.9763 136.126 54.1361 135.302 54.3059 134.482H71.6272V116.359H59.8578C60.1992 115.529 60.5511 114.705 60.9134 113.887ZM94.7988 93.2927V75.1695H113.004V93.2927H94.7988ZM115.487 93.2927V75.1695H133.693V93.2927H115.487ZM136.176 93.2927V75.1695H154.382V93.2927H136.176ZM156.864 93.2927V75.1695H175.071V93.2927H156.864ZM177.553 93.2927V75.1695H195.76V93.2927H177.553ZM198.242 93.2927V75.1695H216.448V93.2927H198.242ZM218.931 95.764H237.137V113.887H218.931V95.764ZM218.931 116.359H237.137V134.482H218.931V116.359ZM218.931 136.953H237.137V155.076H218.931V136.953ZM218.931 157.547H237.137V175.671H218.931V157.547ZM218.931 178.142H237.137V196.265H218.931V178.142ZM218.931 198.736H237.137V216.859H218.931V198.736ZM216.448 219.331V237.454H198.242V219.331H216.448ZM195.76 219.331V237.454H177.553V219.331H195.76ZM175.071 219.331V237.454H156.864V219.331H175.071ZM154.382 219.331V237.454H136.176V219.331H154.382ZM133.693 219.331V237.454H115.487V219.331H133.693ZM113.004 219.331V237.454H94.7988V219.331H113.004ZM92.316 216.859H74.1099V198.736H92.316V216.859ZM92.316 196.265H74.1099V178.142H92.316V196.265ZM92.316 175.671H74.1099V157.547H92.316V175.671ZM92.316 155.076H74.1099V136.953H92.316V155.076ZM92.316 134.482H74.1099V116.359H92.316V134.482ZM92.316 113.887H74.1099V95.764H92.316V113.887ZM94.7988 113.887V95.764H113.004V113.887H94.7988ZM115.487 113.887V95.764H133.693V113.887H115.487ZM136.176 113.887V95.764H154.382V113.887H136.176ZM156.864 113.887V95.764H175.071V113.887H156.864ZM177.553 113.887V95.764H195.76V113.887H177.553ZM198.242 113.887V95.764H216.448V113.887H198.242ZM198.242 116.359H216.448V134.482H198.242V116.359ZM198.242 136.953H216.448V155.076H198.242V136.953ZM198.242 157.547H216.448V175.671H198.242V157.547ZM198.242 178.142H216.448V196.265H198.242V178.142ZM198.242 198.736H216.448V216.859H198.242V198.736ZM195.76 198.736V216.859H177.553V198.736H195.76ZM175.071 198.736V216.859H156.864V198.736H175.071ZM154.382 198.736V216.859H136.176V198.736H154.382ZM133.693 198.736V216.859H115.487V198.736H133.693ZM113.004 198.736V216.859H94.7988V198.736H113.004ZM113.004 196.265H94.7988V178.142H113.004V196.265ZM113.004 175.671H94.7988V157.547H113.004V175.671ZM113.004 155.076H94.7988V136.953H113.004V155.076ZM113.004 134.482H94.7988V116.359H113.004V134.482ZM115.487 134.482V116.359H133.693V134.482H115.487ZM136.176 134.482V116.359H154.382V134.482H136.176ZM156.864 134.482V116.359H175.071V134.482H156.864ZM177.553 134.482V116.359H195.76V134.482H177.553ZM177.553 136.953H195.76V155.076H177.553V136.953ZM177.553 157.547H195.76V175.671H177.553V157.547ZM177.553 178.142H195.76V196.265H177.553V178.142ZM175.071 178.142V196.265H156.864V178.142H175.071ZM154.382 178.142V196.265H136.176V178.142H154.382ZM133.693 178.142V196.265H115.487V178.142H133.693ZM133.693 175.671H115.487V157.547H133.693V175.671ZM133.693 155.076H115.487V136.953H133.693V155.076ZM136.176 155.076V136.953H154.382V155.076H136.176ZM156.864 155.076V136.953H175.071V155.076H156.864ZM156.864 157.547H175.071V175.671H156.864V157.547ZM154.382 157.547V175.671H136.176V157.547H154.382Z" fill="black"/>
<path d="M148.474 115.047L150.589 113.457H165.612L167.838 115.066C170.394 116.912 173.408 118.029 176.556 118.295C179.594 118.553 182.418 119.962 184.441 122.233L184.581 122.391C196.518 120.807 199.911 131.695 200.115 137.337C210.942 143.823 214.04 157.426 214.236 163.416C224.239 162.329 229.702 166.09 235.333 170.437C239.839 173.914 248.081 177.569 251.64 178.963C252.917 181.971 250.591 185.109 249.268 186.301C246.484 185.546 237.808 183.527 225.373 181.496C212.938 179.466 208.472 174.637 207.793 172.477C194.228 165.961 185.235 147.405 182.434 138.941C183.17 148.667 181.108 155.372 179.985 157.508V186.301C165.508 197.36 145.176 191.634 136.819 187.387L136.331 157.508C133.521 152.634 133.728 143.099 134.182 138.941C127.807 158.753 114.269 169.554 108.297 172.477C108.323 172.902 107.993 174.153 106.472 175.756C101.308 180.891 77.8871 184.926 66.8221 186.301C64.5353 184.027 64.3325 180.585 64.5169 179.149C66.9143 178.599 73.8115 175.866 82.2207 169.337C90.6303 162.809 99.1321 162.792 102.331 163.6C101.981 149.395 111.504 140.071 116.309 137.184C118.206 122.491 127.591 121.199 132.047 122.391C132.91 120.81 134.449 119.705 136.23 119.39L140.033 118.715C143.098 118.172 145.99 116.915 148.474 115.047Z" fill="#FFA59A"/>
<path d="M127.09 154.053C120.508 164.402 112.5 170.409 108.277 172.477C108.302 172.901 107.972 174.152 106.451 175.756C101.288 180.891 77.8666 184.925 66.8015 186.301C64.5148 184.027 64.3119 180.585 64.4964 179.149C66.0048 178.802 69.2948 177.592 73.6221 175.116H73.9579C83.6083 174.057 92.4953 168.727 95.7333 166.194C94.605 170.149 88.1612 174.933 85.0807 176.83C93.2892 175.646 101.063 171.515 103.924 169.599C102.51 167.314 102.199 164.975 102.51 164.159C102.27 165.318 104.235 167.375 108.938 166.194C114.418 164.159 116.938 155.493 117.654 150.967L127.09 154.053Z" fill="#D78A80"/>
<path d="M242.802 174.957C246.232 176.712 249.663 178.188 251.642 178.963C252.92 181.972 250.594 185.109 249.272 186.301C246.488 185.546 237.81 183.527 225.375 181.497C212.94 179.466 208.474 174.638 207.796 172.477C200.878 169.154 195.149 162.7 190.825 156.05L198.683 151.659C199.802 157.117 203.616 167.824 211.057 166.531C212.848 166.411 214.055 164.866 214.03 164.085C214.543 164.881 214.03 167.133 212.358 169.674C214.305 171.396 220.864 175.24 231.527 176.83C228.696 175.404 222.581 171.347 220.781 166.531C224.901 169.612 234.792 175.37 242.802 174.957Z" fill="#D78A80"/>
<path d="M128.478 253.61C126.005 245.959 126.226 238.05 126.646 235.052L149.311 245.597C149.455 254.399 147.309 259.809 146.217 261.413C144.855 263.106 142.13 267.947 142.13 273.768C143.164 287.701 141.854 294.334 141.097 298.023C140.492 300.975 139.33 310.598 138.825 315.041H128.073C127.695 307.385 126.892 290.75 126.711 285.449C126.484 278.822 127.791 276.835 128.478 275.014C129.165 273.192 131.569 263.173 128.478 253.61Z" fill="#FFA59A"/>
<path d="M129.037 273.013C130.126 274.997 132.252 277.892 134.003 277.02C135.342 276.355 134.825 273.643 134.305 270.912C133.886 268.718 133.465 266.512 134.003 265.345C135.211 262.726 137.186 262.617 138.392 262.726L147.621 258.307C148.539 255.564 149.404 251.29 149.311 245.597L126.646 235.052C126.226 238.05 126.005 245.959 128.478 253.61C130.952 261.265 129.905 269.212 129.037 273.013Z" fill="#F19B91"/>
<path d="M132.803 315.041H131.562L130.005 314.593C130.353 309.367 131.306 297.587 132.338 292.269C132.784 289.968 133.837 286.183 134.972 282.105C137.114 274.407 139.545 265.666 138.732 263.903C138.504 263.409 138.108 262.943 137.637 262.387C135.535 259.907 131.926 255.651 134.986 239.253L138.192 241.642V252.687C138.192 254.898 139.717 256.82 141.878 257.335C143.474 257.714 145.094 256.8 145.582 255.242L148.632 245.524H149.158L149.316 245.597C149.459 254.399 147.313 259.809 146.221 261.413C144.86 263.106 142.135 267.948 142.135 273.769C143.168 287.701 141.859 294.334 141.101 298.023C140.496 300.975 139.335 310.598 138.83 315.041H133.699L133.627 315.01C133.996 310.794 134.91 301.161 135.616 296.345C136.499 290.326 135.49 289.51 134.986 290.2C134.49 290.878 132.142 308.071 132.803 315.041Z" fill="#D78A80"/>
<path d="M187.343 253.611C189.816 245.96 189.594 238.051 189.175 235.053L166.51 245.598C166.366 254.4 168.513 259.809 169.604 261.414C170.966 263.107 173.69 267.948 173.69 273.77C172.656 287.702 173.966 294.335 174.724 298.024C175.33 300.976 176.49 310.599 176.995 315.042H187.747C188.126 307.387 188.929 290.75 189.111 285.45C189.338 278.823 188.03 276.837 187.343 275.014C186.656 273.193 184.252 263.175 187.343 253.611Z" fill="#FFA59A"/>
<path d="M186.784 273.014C185.695 274.998 183.57 277.893 181.817 277.022C180.479 276.356 180.996 273.644 181.517 270.913C181.934 268.719 182.355 266.512 181.817 265.346C180.61 262.727 178.636 262.618 177.428 262.727L168.2 258.308C167.282 255.565 166.417 251.291 166.51 245.598L189.175 235.053C189.594 238.051 189.816 245.96 187.343 253.611C184.869 261.266 185.915 269.213 186.784 273.014Z" fill="#F19B91"/>
<path d="M183.017 315.042H184.258L185.816 314.594C185.468 309.368 184.514 297.588 183.483 292.27C183.036 289.968 181.983 286.184 180.849 282.106C178.707 274.408 176.275 265.667 177.089 263.904C177.317 263.41 177.713 262.944 178.183 262.387C180.286 259.908 183.894 255.651 180.834 239.254L177.629 241.642V252.688C177.629 254.899 176.104 256.821 173.941 257.335C172.345 257.715 170.727 256.801 170.238 255.242L167.189 245.524H166.662L166.505 245.598C166.361 254.4 168.507 259.809 169.598 261.414C170.961 263.107 173.685 267.948 173.685 273.769C172.652 287.702 173.962 294.335 174.718 298.024C175.324 300.976 176.486 310.599 176.99 315.042H182.122L182.193 315.01C181.824 310.795 180.91 301.162 180.203 296.346C179.321 290.326 180.329 289.511 180.834 290.201C181.329 290.878 183.678 308.072 183.017 315.042Z" fill="#D78A80"/>
<path d="M125.952 235.138L136.815 187.392C157.32 192.593 174.195 188.734 180.018 186.149L190.63 233.533C186.575 241.954 171.799 245.939 164.918 246.879L157.832 225.284L150.86 245.628C144.826 247.72 131.74 239.506 125.952 235.138Z" fill="black"/>
<path d="M150.564 113.457L148.448 115.048C145.965 116.915 143.072 118.172 140.007 118.715L136.205 119.39C134.424 119.706 132.885 120.81 132.022 122.391C127.566 121.2 118.181 122.491 116.283 137.184C114.608 138.19 112.361 139.978 110.158 142.482C111.281 146.006 115.913 153.743 125.449 156.498C128.808 151.72 131.922 145.884 134.156 138.941C133.702 143.099 133.496 152.634 136.306 157.508L136.794 187.388C145.15 191.634 165.483 197.36 179.96 186.301V157.508C181.082 155.372 183.145 148.667 182.409 138.941C183.812 143.183 186.771 149.958 191.081 156.483C195.041 155.235 203.631 150.724 206.312 142.667C204.597 140.64 202.542 138.806 200.09 137.338C199.886 131.696 196.493 120.808 184.556 122.391L184.416 122.233C182.392 119.963 179.569 118.553 176.53 118.296C173.383 118.029 170.369 116.913 167.813 115.066L165.586 113.457H150.564Z" fill="white"/>
<path d="M179.959 157.658C166.523 161.926 159.165 157.191 157.151 154.25C151.757 161.577 141.08 159.514 136.306 157.529L136.391 162.756C150.79 165.516 155.683 160.611 157.151 158.818C157.569 161.194 161.583 162.209 164.929 162.624C166.719 162.846 168.152 164.299 168.152 166.093V191.764C172.27 190.818 176.301 189.095 179.959 186.301V157.658Z" fill="#DAD1FF"/>
<path d="M157.219 166.913C155.544 169.515 151.942 169.993 149.771 169.882C149.682 169.878 149.644 169.979 149.728 170C157.688 172.034 165.68 170.462 168.752 169.389C160.016 170.553 157.623 168.443 157.438 166.939C157.431 166.88 157.254 166.858 157.219 166.913Z" fill="#DAD1FF"/>
<path d="M157.537 174.504C155.465 177.099 151.009 177.576 148.323 177.466C148.212 177.461 148.165 177.562 148.269 177.584C158.118 179.611 168.006 178.044 171.807 176.975C160.998 178.135 158.037 176.03 157.809 174.531C157.799 174.472 157.581 174.45 157.537 174.504Z" fill="#DAD1FF"/>
<path d="M156.93 182.085C155.008 184.68 150.878 185.156 148.388 185.046C148.285 185.041 148.241 185.142 148.338 185.164C157.468 187.192 166.634 185.625 170.157 184.554C160.138 185.715 157.393 183.611 157.181 182.111C157.172 182.052 156.97 182.031 156.93 182.085Z" fill="#DAD1FF"/>
<path d="M150.414 113.271L150.516 110.635L165.824 110.784L165.648 113.977C165.432 117.891 162.252 120.996 158.313 121.14C153.88 121.302 150.244 117.68 150.414 113.271Z" fill="#FFA59A"/>
<path d="M165.701 113.227C163.472 114.38 160.929 115.012 158.239 114.96C155.383 114.906 152.721 114.089 150.447 112.708L150.527 110.634L165.835 110.783L165.701 113.227Z" fill="#6C6666"/>
<path d="M142.988 97.6065L143.133 90.5541V77.1456L174.39 76.5423L174.074 98.1454C173.949 106.71 166.845 113.541 158.233 113.377C149.642 113.213 142.814 106.15 142.988 97.6065Z" fill="#FFA59A"/>
<path fill-rule="evenodd" clip-rule="evenodd" d="M163.956 90.112C164.692 90.2371 165.174 90.6147 165.305 90.8552C165.465 91.1532 165.839 91.2645 166.139 91.1038C166.44 90.9431 166.551 90.5712 166.389 90.2732C166.021 89.5934 165.134 89.0681 164.164 88.9033C163.151 88.7312 161.942 88.9276 160.868 89.8195C160.606 90.0365 160.571 90.4231 160.789 90.6831C161.007 90.943 161.396 90.9779 161.657 90.7609C162.429 90.121 163.263 89.9943 163.956 90.112Z" fill="black"/>
<path fill-rule="evenodd" clip-rule="evenodd" d="M153.329 90.5341C154.075 90.5681 154.6 90.8837 154.76 91.1064C154.957 91.3824 155.342 91.447 155.619 91.2508C155.897 91.0546 155.961 90.6719 155.764 90.3959C155.314 89.7665 154.369 89.354 153.386 89.3093C152.358 89.2626 151.184 89.6056 150.228 90.6224C149.996 90.8696 150.009 91.2576 150.257 91.4888C150.506 91.7201 150.896 91.707 151.128 91.4598C151.815 90.7302 152.627 90.5022 153.329 90.5341Z" fill="black"/>
<path fill-rule="evenodd" clip-rule="evenodd" d="M158.688 97.8998C158.988 97.9091 159.222 98.1577 159.213 98.4551L159.161 100.122C159.63 100.178 160.068 100.324 160.427 100.573C160.948 100.933 161.271 101.488 161.289 102.181C161.324 103.586 160.051 104.628 158.622 104.663C158.323 104.671 158.074 104.436 158.066 104.139C158.059 103.841 158.296 103.594 158.594 103.586C159.581 103.562 160.223 102.874 160.206 102.208C160.197 101.865 160.052 101.625 159.808 101.457C159.547 101.276 159.141 101.16 158.616 101.173C158.467 101.177 158.323 101.119 158.218 101.014C158.113 100.909 158.056 100.766 158.061 100.618L158.13 98.4213C158.14 98.1239 158.389 97.8904 158.688 97.8998Z" fill="black"/>
<path d="M154.272 107.159C154.425 108.89 155.97 110.169 157.725 110.016C158.934 109.911 159.926 109.154 160.376 108.126C160.496 107.854 160.316 107.559 160.026 107.485L154.895 106.171C154.608 106.097 154.308 106.266 154.277 106.56C154.257 106.755 154.255 106.956 154.272 107.159Z" fill="white"/>
<path d="M154.098 96.3481C154.7 96.333 155.169 95.6155 155.147 94.7455C155.125 93.8755 154.62 93.1825 154.018 93.1976C153.417 93.2127 152.947 93.9302 152.969 94.8002C152.991 95.6702 153.497 96.3632 154.098 96.3481Z" fill="black"/>
<path d="M163.115 96.2395C163.716 96.251 164.218 95.555 164.235 94.6849C164.252 93.8148 163.778 93.1001 163.176 93.0885C162.575 93.077 162.073 93.773 162.056 94.6431C162.039 95.5132 162.513 96.2279 163.115 96.2395Z" fill="black"/>
<path d="M143.277 89.5874C143.081 89.5396 142.878 89.5146 142.672 89.5146C140.921 89.5146 139.501 91.3049 139.501 93.5133C139.501 95.7219 140.921 97.5121 142.672 97.5121C142.832 97.5121 142.988 97.4973 143.142 97.4685L143.277 89.5874Z" fill="#FFA59A"/>
<path d="M174.521 98.3028C176.272 98.3028 177.691 96.5125 177.691 94.3041C177.691 92.0956 176.272 90.3053 174.521 90.3053C172.77 90.3053 171.35 92.0956 171.35 94.3041C171.35 96.5125 172.77 98.3028 174.521 98.3028Z" fill="#FFA59A"/>
<path d="M148.614 84.4345C145.721 84.8197 143.768 88.1017 143.154 89.6945C141.955 89.2958 140.779 90.2694 140.327 90.8274L140.297 81.1741C140.735 76.5039 143.886 75.1143 145.407 75.0032C150.08 67.7074 157.129 68.777 160.069 70.2237C172.188 67.6101 176.653 77.4433 177.37 82.6866V92.5095C176.709 90.7686 175.03 90.2761 174.274 90.2476V87.3067C170.103 86.9478 166.923 83.6349 165.853 82.0233C165.598 84.0558 167.842 85.9145 169.305 86.7843C169.436 86.8618 169.4 87.062 169.249 87.0797C165.87 87.4759 164.18 85.5126 163.748 84.4345C163.32 86.1495 164.604 87.4102 165.528 87.9754C165.647 88.0484 165.632 88.2234 165.494 88.248C164.766 88.378 163.485 88.3073 162.244 87.3067C160.842 86.176 160.703 81.3341 160.818 78.6743C160.824 78.5259 160.64 78.4495 160.539 78.5583L159.643 79.5185C159.584 79.581 159.486 79.5862 159.421 79.5301L158.572 78.7958C158.485 78.72 158.347 78.7596 158.311 78.8692C157.896 80.1232 156.729 82.7608 154.776 84.9641C153.113 86.8397 150.673 87.2155 149.045 87.1399C148.863 87.1315 148.831 86.761 148.992 86.6741C150.106 86.0717 151.261 84.8221 151.804 84.1229C151.719 84.1229 150.961 84.1852 148.614 84.4345Z" fill="black"/>
<path fill-rule="evenodd" clip-rule="evenodd" d="M141.841 93.145C141.703 93.0051 141.58 92.92 141.483 92.8776C141.421 92.8508 141.378 92.8446 141.353 92.8453C141.331 92.8459 141.324 92.8517 141.321 92.8542C141.227 92.933 141.088 92.9218 141.009 92.8293C140.929 92.7366 140.941 92.5977 141.034 92.5189C141.218 92.3633 141.458 92.3859 141.661 92.4744C141.867 92.5646 142.084 92.7402 142.296 92.9875C142.438 93.1532 142.569 93.3913 142.642 93.6122C142.679 93.7227 142.705 93.8417 142.704 93.9534C142.703 94.0603 142.676 94.2028 142.56 94.3018C142.466 94.3807 142.327 94.3695 142.248 94.2769C142.172 94.1891 142.179 94.0596 142.259 93.9792C142.26 93.9737 142.261 93.9646 142.261 93.9506C142.261 93.9039 142.249 93.8349 142.222 93.7493C142.194 93.6673 142.156 93.5818 142.113 93.5019C142.062 93.554 142.004 93.6063 141.941 93.6559C141.762 93.7944 141.522 93.9209 141.235 93.9421C141.114 93.9511 141.007 93.8601 140.998 93.7389C140.989 93.6176 141.08 93.5119 141.202 93.5029C141.376 93.49 141.535 93.4119 141.668 93.3087C141.737 93.2552 141.795 93.1978 141.841 93.145Z" fill="black"/>
<path fill-rule="evenodd" clip-rule="evenodd" d="M175.224 93.8276C175.376 93.7023 175.507 93.6301 175.608 93.5976C175.671 93.5772 175.714 93.5752 175.739 93.5785C175.762 93.5814 175.768 93.5879 175.772 93.5907C175.856 93.6785 175.996 93.6815 176.084 93.5973C176.173 93.5132 176.175 93.3738 176.091 93.286C175.924 93.1128 175.682 93.1109 175.472 93.1786C175.257 93.2475 175.023 93.4003 174.787 93.6251C174.63 93.7756 174.474 93.9992 174.379 94.2117C174.332 94.3179 174.294 94.4337 174.283 94.5449C174.273 94.6514 174.285 94.7958 174.391 94.906C174.476 94.9938 174.616 94.9968 174.705 94.9126C174.788 94.8329 174.795 94.7034 174.723 94.6154C174.723 94.6098 174.723 94.6007 174.724 94.5867C174.729 94.5402 174.747 94.4728 174.785 94.3904C174.819 94.3115 174.866 94.2303 174.917 94.1552C174.962 94.2121 175.015 94.2701 175.073 94.3258C175.237 94.4816 175.462 94.6316 175.746 94.6815C175.866 94.7028 175.981 94.623 176.003 94.5033C176.024 94.3835 175.944 94.2692 175.823 94.248C175.651 94.2176 175.501 94.1239 175.38 94.0079C175.316 93.9477 175.264 93.8846 175.224 93.8276ZM174.724 94.6222V94.6209V94.6222Z" fill="black"/>
</g>
<path fill-rule="evenodd" clip-rule="evenodd" d="M0 189.098C0 187.349 1.42575 185.931 3.1845 185.931H252.108C253.867 185.931 255.292 187.349 255.292 189.098C255.292 190.847 253.867 192.265 252.108 192.265H3.1845C1.42575 192.265 0 190.847 0 189.098Z" fill="#F8D14F"/>
<path fill-rule="evenodd" clip-rule="evenodd" d="M59.7077 189.098C59.7077 187.349 61.1334 185.93 62.8923 185.93H311.815C313.574 185.93 315 187.349 315 189.098C315 190.847 313.574 192.264 311.815 192.264H62.8923C61.1334 192.264 59.7077 190.847 59.7077 189.098Z" fill="#F8D14F"/>
<path d="M17.3168 212.672L20.0888 213.277L22.5128 164.48L18.7755 163.659L11.4721 188.424L17.3168 212.672Z" fill="#232323"/>
<path d="M26.0846 188.844C25.6987 202.381 21.7747 213.048 17.32 212.672C12.8652 212.297 9.56687 201.019 9.95271 187.482C10.3386 173.946 14.2626 163.277 18.7174 163.653C23.172 164.029 26.4705 175.308 26.0846 188.844Z" fill="#232323"/>
<path d="M20.9378 213.442C25.4669 213.825 29.4513 203.161 29.8371 189.625C30.223 176.088 26.8643 164.805 22.3352 164.423C17.8061 164.04 13.8218 174.704 13.4359 188.24C13.0501 201.777 16.4088 213.06 20.9378 213.442Z" fill="#474747"/>
<path d="M22.0628 195.443C23.2434 195.543 24.2833 192.716 24.3855 189.128C24.4878 185.541 23.6137 182.552 22.4331 182.453C21.2526 182.353 20.2127 185.18 20.1105 188.768C20.0082 192.355 20.8823 195.344 22.0628 195.443Z" fill="black"/>
<path d="M23.9423 217.328L27.5518 218.047L30.708 159.984L25.8416 159.006L16.3322 188.475L23.9423 217.328Z" fill="#232323"/>
<path d="M35.3586 188.974C34.8562 205.082 29.7468 217.776 23.9465 217.329C18.1462 216.881 13.8514 203.461 14.3538 187.354C14.8563 171.247 19.9657 158.552 25.766 159C31.5663 159.448 35.8611 172.867 35.3586 188.974Z" fill="#232323"/>
<path d="M28.6546 218.243C34.5518 218.698 39.7396 206.009 40.2421 189.902C40.7445 173.795 36.3712 160.369 30.4741 159.914C24.5769 159.459 19.3891 172.148 18.8866 188.255C18.3842 204.362 22.7575 217.788 28.6546 218.243Z" fill="#474747"/>
<path d="M30.1167 196.827C31.6539 196.946 33.0079 193.582 33.141 189.313C33.2742 185.045 32.136 181.488 30.5989 181.37C29.0618 181.251 27.7078 184.615 27.5746 188.884C27.4415 193.152 28.5796 196.709 30.1167 196.827Z" fill="black"/>
<path d="M297.475 212.673L294.703 213.278L292.28 164.481L296.017 163.659L303.321 188.426L297.475 212.673Z" fill="#232323"/>
<path d="M288.708 188.845C289.094 202.381 293.018 213.05 297.472 212.673C301.928 212.297 305.225 201.019 304.84 187.483C304.454 173.947 300.53 163.278 296.075 163.654C291.621 164.03 288.322 175.308 288.708 188.845Z" fill="#232323"/>
<path d="M293.86 213.442C289.331 213.825 285.347 203.161 284.961 189.625C284.575 176.088 287.934 164.805 292.463 164.423C296.992 164.04 300.976 174.704 301.362 188.24C301.748 201.777 298.389 213.06 293.86 213.442Z" fill="#474747"/>
<path d="M292.736 195.443C291.555 195.543 290.516 192.716 290.413 189.128C290.311 185.541 291.185 182.552 292.366 182.453C293.546 182.353 294.586 185.18 294.688 188.768C294.791 192.355 293.917 195.344 292.736 195.443Z" fill="black"/>
<path d="M290.836 217.328L287.227 218.047L284.07 159.984L288.937 159.006L298.446 188.475L290.836 217.328Z" fill="#232323"/>
<path d="M279.42 188.974C279.922 205.081 285.031 217.776 290.832 217.329C296.632 216.881 300.927 203.461 300.424 187.353C299.922 171.246 294.813 158.552 289.013 158.999C283.212 159.447 278.917 172.867 279.42 188.974Z" fill="#232323"/>
<path d="M286.128 218.244C280.231 218.699 275.043 206.01 274.541 189.903C274.038 173.796 278.411 160.37 284.308 159.915C290.206 159.46 295.394 172.148 295.896 188.255C296.398 204.362 292.025 217.789 286.128 218.244Z" fill="#474747"/>
<path d="M284.663 196.827C283.126 196.945 281.772 193.581 281.639 189.313C281.506 185.044 282.644 181.488 284.181 181.369C285.718 181.25 287.072 184.615 287.205 188.883C287.338 193.152 286.2 196.708 284.663 196.827Z" fill="black"/>
<path fill-rule="evenodd" clip-rule="evenodd" d="M29.7198 189.098C29.7198 187.349 31.1455 185.93 32.9042 185.93H281.827C283.586 185.93 285.012 187.349 285.012 189.098C285.012 190.847 283.586 192.264 281.827 192.264H32.9042C31.1455 192.264 29.7198 190.847 29.7198 189.098Z" fill="#F8D14F"/>
<path d="M54.1395 195.637C56.5632 195.541 57.7791 193.441 58.0841 192.402V192.267H52.5199L52.5942 191.553L53.7329 190.179L53.0619 189.208L52.8585 187.61L51.7606 187.085V185.67L50.6423 184.941L47.9177 186.256L46.5961 187.61L47.4298 188.965L46.7791 190.34L47.7144 191.553L46.5961 193.433L47.9177 194.202V195.799L49.1377 196.527L50.9676 195.273C51.015 195.435 51.7159 195.735 54.1395 195.637Z" fill="#D78A80"/>
<path d="M47.5971 185.93H48.0918C49.6716 185.591 51.3038 185.782 51.9224 185.921H66.616L64.7198 179.379C61.9934 180.153 55.6924 181.888 52.3004 182.632C48.9084 183.376 47.7515 185.141 47.5971 185.93Z" fill="#D78A80"/>
<path fill-rule="evenodd" clip-rule="evenodd" d="M50.0006 189.985C49.996 189.998 49.9856 190.043 50.0167 190.135C50.145 190.517 50.1991 191.02 50.2159 191.528C50.2329 192.045 50.2123 192.601 50.1762 193.109C50.1192 193.912 50.3543 194.593 50.8989 194.84C52.035 195.359 53.5559 195.335 54.9224 195.098C56.1289 194.889 57.0604 193.933 57.4981 192.712L57.6651 192.265H58.4903L58.248 192.978C57.7419 194.39 56.6217 195.607 55.0593 195.878C53.6414 196.123 51.9246 196.18 50.567 195.56C49.5527 195.097 49.3182 193.953 49.3821 193.054C49.417 192.562 49.436 192.035 49.4201 191.554C49.404 191.066 49.3525 190.657 49.2614 190.385C49.1879 190.166 49.1748 189.941 49.2467 189.73C49.319 189.519 49.4637 189.361 49.6343 189.255C49.9611 189.051 50.3987 189.02 50.801 189.096C51.6222 189.251 52.5611 189.9 52.7121 191.128C52.8145 191.959 52.8371 192.588 52.8215 193.04C52.8067 193.475 52.7559 193.787 52.6833 193.957C52.5973 194.158 52.3636 194.251 52.1613 194.166C51.9589 194.081 51.8647 193.848 51.9507 193.647C51.9514 193.644 51.956 193.632 51.9627 193.605C51.9702 193.575 51.9786 193.533 51.987 193.479C52.0038 193.369 52.0189 193.215 52.0259 193.013C52.0397 192.609 52.0203 192.023 51.9219 191.223C51.8219 190.412 51.2125 189.98 50.6529 189.874C50.3648 189.82 50.1538 189.865 50.057 189.925C50.0157 189.951 50.0048 189.973 50.0006 189.985Z" fill="black"/>
<path fill-rule="evenodd" clip-rule="evenodd" d="M50.1226 192.86C50.2391 193.045 50.1824 193.289 49.996 193.405L48.621 194.26C48.1615 194.545 48.0172 195.145 48.2968 195.606C48.5524 196.028 49.1146 196.146 49.5196 195.862L50.7441 195.005C50.9238 194.878 51.1721 194.921 51.2987 195.1C51.4254 195.278 51.3823 195.525 51.2026 195.652L49.9781 196.51C49.1952 197.058 48.1088 196.83 47.6148 196.015C47.111 195.183 47.3711 194.103 48.199 193.588L49.5741 192.734C49.7605 192.618 50.0061 192.674 50.1226 192.86Z" fill="black"/>
<path fill-rule="evenodd" clip-rule="evenodd" d="M49.9506 190.214C50.0771 190.393 50.0339 190.64 49.854 190.766L47.5572 192.373C47.2187 192.609 47.0801 193.041 47.2179 193.429C47.3089 193.685 47.5815 193.829 47.8458 193.762L48.0986 193.697C48.3115 193.642 48.5286 193.77 48.5834 193.982C48.6383 194.193 48.5102 194.409 48.2973 194.464L48.0444 194.528C47.3804 194.699 46.6957 194.336 46.4673 193.693C46.2106 192.97 46.4688 192.166 47.0991 191.725L49.396 190.118C49.5758 189.993 49.8241 190.035 49.9506 190.214Z" fill="black"/>
<path fill-rule="evenodd" clip-rule="evenodd" d="M53.0116 189.918C52.8542 189.713 52.5743 189.644 52.3394 189.754L51.9023 189.958C51.7033 190.051 51.4662 189.965 51.3728 189.767C51.2794 189.57 51.365 189.334 51.564 189.241L52.0012 189.037C52.5754 188.769 53.2599 188.936 53.6447 189.437C54.0948 190.024 53.9827 190.863 53.3939 191.312L52.8523 191.726C52.6779 191.859 52.428 191.826 52.2941 191.653C52.1602 191.479 52.1931 191.231 52.3674 191.098L52.9091 190.684C53.1499 190.501 53.1957 190.158 53.0116 189.918Z" fill="black"/>
<path fill-rule="evenodd" clip-rule="evenodd" d="M52.2398 187.767C51.8728 187.514 51.3946 187.489 51.0021 187.7L47.7059 189.469C47.5186 189.57 47.3873 189.75 47.3485 189.957C47.2901 190.272 47.4 190.593 47.6387 190.807L48.0115 191.14C48.1749 191.287 48.1881 191.537 48.0411 191.7C47.8941 191.862 47.6423 191.875 47.4789 191.73L47.1061 191.396C46.6615 190.998 46.4568 190.398 46.5657 189.813C46.6484 189.37 46.9285 188.987 47.3275 188.773L50.6237 187.003C51.2797 186.651 52.079 186.694 52.6924 187.115C53.0943 187.392 53.3343 187.847 53.3343 188.332V189.37C53.3343 189.589 53.156 189.766 52.9362 189.766C52.7163 189.766 52.5381 189.589 52.5381 189.37V188.332C52.5381 188.107 52.4266 187.895 52.2398 187.767Z" fill="black"/>
<path fill-rule="evenodd" clip-rule="evenodd" d="M50.7501 185.495C50.5709 185.435 50.3741 185.456 50.2129 185.555L47.4324 187.25C47.0603 187.477 46.9768 187.979 47.2557 188.312L47.6791 188.819C47.8196 188.987 47.7964 189.237 47.6273 189.377C47.4582 189.516 47.2073 189.494 47.0667 189.325L46.6434 188.818C46.0545 188.113 46.2308 187.053 47.0163 186.574L49.7968 184.88C50.1596 184.659 50.6023 184.61 51.0054 184.745C51.79 185.009 52.2759 185.79 52.1639 186.606L52.1047 187.038C52.075 187.254 51.8743 187.406 51.6565 187.377C51.4387 187.347 51.2861 187.147 51.3159 186.931L51.3751 186.499C51.4355 186.058 51.1734 185.637 50.7501 185.495Z" fill="black"/>
<path fill-rule="evenodd" clip-rule="evenodd" d="M64.4202 179.904L64.047 180.042C61.9538 180.813 57.2917 182.244 53.8253 182.75C50.524 183.231 48.5254 184.717 47.839 185.616L47.5983 185.931H46.7318L46.9599 185.639C47.7487 184.606 50.1665 182.482 53.7099 181.966C57.0882 181.474 62.009 180.057 64.0954 179.289L64.4686 179.151L64.4202 179.904Z" fill="black"/>
<path d="M262.264 195.637C259.841 195.54 258.625 193.44 258.32 192.402V192.267H263.884L263.81 191.552L262.671 190.178L263.342 189.207L263.545 187.609L264.644 187.084V185.669L265.761 184.94L268.487 186.255L269.808 187.609L268.974 188.965L269.625 190.34L268.689 191.552L269.808 193.433L268.487 194.201V195.799L267.266 196.527L265.436 195.273C265.389 195.434 264.688 195.734 262.264 195.637Z" fill="#D78A80"/>
<path d="M268.809 185.928H268.314C266.734 185.588 265.102 185.78 264.483 185.918H249.789L251.686 179.376C254.413 180.151 260.713 181.887 264.105 182.63C267.497 183.373 268.654 185.138 268.809 185.928Z" fill="#D78A80"/>
<path fill-rule="evenodd" clip-rule="evenodd" d="M266.402 189.985C266.406 189.999 266.417 190.043 266.386 190.136C266.257 190.519 266.203 191.02 266.186 191.529C266.169 192.046 266.19 192.602 266.226 193.111C266.283 193.913 266.048 194.593 265.504 194.841C264.367 195.36 262.847 195.336 261.48 195.099C260.273 194.89 259.342 193.934 258.904 192.713L258.737 192.266H257.912L258.155 192.979C258.66 194.39 259.781 195.607 261.343 195.879C262.761 196.125 264.478 196.181 265.836 195.561C266.849 195.099 267.084 193.953 267.021 193.054C266.985 192.563 266.967 192.035 266.982 191.555C266.998 191.067 267.05 190.658 267.141 190.386C267.215 190.166 267.227 189.942 267.156 189.731C267.084 189.519 266.938 189.362 266.768 189.255C266.442 189.052 266.004 189.021 265.602 189.097C264.78 189.251 263.842 189.902 263.691 191.128C263.588 191.96 263.565 192.588 263.581 193.042C263.596 193.476 263.647 193.788 263.719 193.957C263.805 194.159 264.039 194.252 264.241 194.167C264.443 194.081 264.538 193.849 264.451 193.648C264.451 193.646 264.447 193.633 264.44 193.606C264.432 193.576 264.424 193.534 264.415 193.479C264.399 193.37 264.384 193.216 264.376 193.014C264.363 192.611 264.382 192.024 264.48 191.225C264.581 190.413 265.19 189.981 265.749 189.875C266.038 189.82 266.248 189.865 266.345 189.926C266.387 189.952 266.398 189.973 266.402 189.985Z" fill="black"/>
<path fill-rule="evenodd" clip-rule="evenodd" d="M266.279 192.86C266.163 193.046 266.219 193.29 266.406 193.406L267.781 194.261C268.24 194.546 268.384 195.145 268.105 195.607C267.849 196.029 267.287 196.147 266.882 195.863L265.657 195.005C265.478 194.879 265.229 194.922 265.103 195.1C264.976 195.279 265.019 195.526 265.199 195.653L266.424 196.51C267.206 197.059 268.293 196.831 268.787 196.016C269.29 195.183 269.03 194.104 268.202 193.589L266.828 192.735C266.641 192.619 266.395 192.675 266.279 192.86Z" fill="black"/>
<path fill-rule="evenodd" clip-rule="evenodd" d="M266.449 190.216C266.322 190.395 266.366 190.642 266.545 190.768L268.842 192.374C269.18 192.611 269.319 193.043 269.181 193.431C269.091 193.687 268.818 193.831 268.554 193.763L268.301 193.699C268.088 193.644 267.87 193.772 267.816 193.983C267.761 194.195 267.889 194.411 268.102 194.465L268.355 194.531C269.019 194.7 269.704 194.337 269.932 193.694C270.188 192.972 269.931 192.167 269.3 191.727L267.003 190.121C266.824 189.994 266.575 190.038 266.449 190.216Z" fill="black"/>
<path fill-rule="evenodd" clip-rule="evenodd" d="M263.396 189.917C263.554 189.712 263.833 189.643 264.068 189.753L264.505 189.957C264.705 190.05 264.942 189.965 265.035 189.767C265.128 189.569 265.043 189.333 264.844 189.241L264.407 189.036C263.833 188.768 263.148 188.935 262.763 189.436C262.313 190.023 262.425 190.862 263.014 191.312L263.556 191.726C263.73 191.858 263.98 191.826 264.114 191.652C264.248 191.479 264.215 191.231 264.04 191.097L263.499 190.684C263.258 190.5 263.212 190.157 263.396 189.917Z" fill="black"/>
<path fill-rule="evenodd" clip-rule="evenodd" d="M264.165 187.767C264.533 187.514 265.011 187.489 265.404 187.7L268.7 189.469C268.887 189.57 269.018 189.75 269.057 189.957C269.116 190.272 269.006 190.593 268.767 190.807L268.394 191.14C268.231 191.287 268.218 191.537 268.365 191.7C268.512 191.862 268.763 191.875 268.927 191.73L269.299 191.396C269.744 190.998 269.949 190.398 269.839 189.813C269.757 189.37 269.477 188.987 269.078 188.773L265.782 187.003C265.126 186.651 264.326 186.694 263.713 187.115C263.311 187.392 263.071 187.847 263.071 188.332V189.37C263.071 189.589 263.25 189.766 263.469 189.766C263.689 189.766 263.867 189.589 263.867 189.37V188.332C263.867 188.107 263.979 187.895 264.165 187.767Z" fill="black"/>
<path fill-rule="evenodd" clip-rule="evenodd" d="M265.653 185.494C265.833 185.434 266.029 185.456 266.19 185.555L268.97 187.249C269.343 187.476 269.427 187.978 269.147 188.312L268.724 188.818C268.584 188.987 268.607 189.236 268.776 189.376C268.945 189.516 269.196 189.493 269.336 189.325L269.76 188.818C270.348 188.113 270.172 187.052 269.387 186.574L266.606 184.879C266.244 184.658 265.801 184.609 265.398 184.744C264.613 185.009 264.128 185.789 264.239 186.605L264.299 187.037C264.329 187.254 264.529 187.406 264.747 187.376C264.964 187.346 265.117 187.147 265.087 186.93L265.028 186.498C264.968 186.058 265.23 185.637 265.653 185.494Z" fill="black"/>
<path fill-rule="evenodd" clip-rule="evenodd" d="M251.554 179.67L251.927 179.808C254.021 180.579 259.117 182.245 262.582 182.75C265.884 183.232 267.882 184.718 268.569 185.617L268.81 185.932H269.676L269.448 185.64C268.659 184.607 266.241 182.483 262.698 181.967C259.32 181.475 253.965 179.823 251.879 179.054L251.506 178.917L251.554 179.67Z" fill="black"/>
</g>
<g clip-path="url(#clip1_21_112)">
<mask id="mask1_21_112" style="mask-type:luminance" maskUnits="userSpaceOnUse" x="7" y="0" width="120" height="120">
<path d="M127 0H7V120H127V0Z" fill="white"/>
</mask>
<g mask="url(#mask1_21_112)">
<path d="M67 120C100.137 120 127 93.1371 127 60C127 26.8629 100.137 0 67 0C33.8629 0 7 26.8629 7 60C7 93.1371 33.8629 120 67 120Z" fill="#3CBBDB"/>
<path d="M122.163 83.6399C112.987 105.022 91.7423 119.999 66.9998 119.999C42.2573 119.999 21.0128 105.022 11.8369 83.6399C27.3589 78.249 46.4103 75.0734 66.9998 75.0734C87.5893 75.0734 106.641 78.249 122.163 83.6399Z" fill="#2298B6"/>
<path d="M113.275 98.1948C105.664 107.406 95.355 114.306 83.5586 117.686L88.7905 98.1948H113.275Z" fill="#186B81"/>
<path d="M121.633 84.8392C125.08 77.2703 127 68.8594 127 60.0001C127 56.8371 126.755 53.7314 126.284 50.7007L124.856 51.1114C119.837 52.5554 116.38 57.1474 116.38 62.3701L112.622 63.3983C109.11 64.3589 106.675 67.5496 106.675 71.1901H106.192C101.469 71.1901 97.085 73.644 94.6152 77.6701L121.633 84.8392Z" fill="white"/>
<path d="M12.4483 85.0168C9.11835 77.7673 7.19095 69.7398 7.01367 61.282L8.44544 61.021C12.229 60.3313 15.9179 62.627 16.9701 66.3262L17.0353 66.5551L18.4602 66.4771C21.6814 66.3008 24.4995 68.6243 24.9403 71.8201L27.2046 71.7048C29.771 71.5741 32.176 72.9584 33.3521 75.2432L34.8253 78.1051L12.4483 85.0168Z" fill="white"/>
<path d="M78.6553 118.869L109.615 26.5952L110.115 26.6545L111.991 31.7872L87.1883 116.519C84.4315 117.504 81.5816 118.293 78.6553 118.869Z" fill="#F58C12"/>
<path d="M83.1102 117.813C77.9838 119.238 72.5811 120 67.0005 120C47.5622 120 30.2829 110.756 19.3184 96.4251L46.1805 7.2749L110.125 26.6399L83.1102 117.813Z" fill="#FFB140"/>
<path d="M21.7422 99.3931L48.0698 11.8555L105.7 29.3101L82.5418 107.513L82.5353 107.535L59.3851 119.521C44.4183 117.626 31.1708 110.216 21.7422 99.3931Z" fill="white"/>
<path d="M57.5928 119.267L62.2396 101.561L82.5454 107.502L59.4199 119.526C58.8079 119.449 58.1988 119.362 57.5928 119.267Z" fill="#F0F0F0"/>
<path d="M87.1071 45.3328C82.1768 38.7906 73.675 40.8686 70.0405 42.7254L62.3393 70.1442C83.9577 63.3174 91.9223 51.7971 87.1071 45.3328Z" fill="#F58C12"/>
<path d="M54.1153 36.0646C61.7313 33.047 67.9072 39.2483 70.0431 42.7261L62.3393 70.1442C47.4386 53.0583 46.6383 39.0757 54.1153 36.0646Z" fill="#F58C12"/>
<path d="M48.9707 52.6455L59.0816 55.2772L63.0982 47.9364L65.3143 60.8173L69.7465 51.676L70.8545 57.2162L76.2562 58.4628" stroke="white" stroke-width="1.2" stroke-linecap="round" stroke-linejoin="round"/>
<path fill-rule="evenodd" clip-rule="evenodd" d="M35.3885 67.6999C35.4274 67.5732 35.5617 67.502 35.6884 67.5409L85.3113 82.7644C85.438 82.8033 85.5092 82.9375 85.4703 83.0643C85.4315 83.191 85.2972 83.2622 85.1705 83.2233L35.5476 67.9998C35.4209 67.9609 35.3497 67.8267 35.3885 67.6999Z" fill="black"/>
<path fill-rule="evenodd" clip-rule="evenodd" d="M37.7057 72.169C37.7441 72.0422 37.8781 71.9705 38.0049 72.0089L79.4348 84.553C79.5617 84.5914 79.6334 84.7254 79.595 84.8522C79.5566 84.9791 79.4226 85.0508 79.2957 85.0124L37.8658 72.4683C37.739 72.4299 37.6673 72.2959 37.7057 72.169Z" fill="black"/>
<path opacity="0.3" fill-rule="evenodd" clip-rule="evenodd" d="M35.9801 82.296C36.0185 82.1691 36.1525 82.0974 36.2793 82.1358L77.7092 94.6799C77.8361 94.7183 77.9078 94.8523 77.8694 94.9792C77.831 95.106 77.697 95.1778 77.5701 95.1393L36.1402 82.5953C36.0134 82.5568 35.9417 82.4229 35.9801 82.296Z" fill="black"/>
<path opacity="0.3" fill-rule="evenodd" clip-rule="evenodd" d="M34.776 85.5182C34.8144 85.3913 34.9484 85.3196 35.0752 85.358L76.5051 97.9021C76.632 97.9405 76.7037 98.0745 76.6653 98.2014C76.6269 98.3282 76.4929 98.3999 76.366 98.3615L34.9361 85.8174C34.8093 85.779 34.7376 85.645 34.776 85.5182Z" fill="black"/>
<path opacity="0.3" fill-rule="evenodd" clip-rule="evenodd" d="M35.9293 89.201C35.9678 89.0742 36.1018 89.0026 36.2287 89.041L70.7536 99.5136C70.8804 99.5521 70.9521 99.6861 70.9136 99.8129C70.8751 99.9398 70.7411 100.011 70.6143 99.9729L36.0893 89.5004C35.9625 89.4619 35.8909 89.3279 35.9293 89.201Z" fill="black"/>
<path d="M61.0424 17.9319L60.9675 18.0492C60.4046 18.9302 60.8499 20.1046 61.8553 20.3909L61.0424 17.9319Z" fill="#202020"/>
<path d="M95.5455 20.6768L95.4441 20.8848L94.5699 18.4483L94.713 18.5062C95.5669 18.852 95.9492 19.8487 95.5455 20.6768Z" fill="#202020"/>
<path d="M89.9048 28.4613L61.9833 20.4344C61.3101 20.2409 61.0278 19.442 61.43 18.8685L65.966 12.4005C66.2114 12.0505 66.649 11.8907 67.0623 12.0001L94.8397 19.358C95.5007 19.5331 95.8056 20.2962 95.4473 20.8786L91.0553 28.0155C90.8154 28.4055 90.3449 28.5878 89.9048 28.4613Z" fill="#202020"/>
<path d="M83.4884 16.0429C83.5653 18.5728 81.5769 20.686 79.047 20.763C76.5171 20.84 74.4039 18.8515 74.3269 16.3216C74.2499 13.7918 76.2384 11.6785 78.7683 11.6015C81.2981 11.5246 83.4114 13.513 83.4884 16.0429Z" fill="#202020"/>
<path d="M89.5158 27.5127L61.5943 19.4858C60.9211 19.2923 60.6388 18.4934 61.041 17.9199L65.5769 11.4519C65.8224 11.1019 66.26 10.9421 66.6732 11.0515L94.4507 18.4094C95.1117 18.5845 95.4166 19.3476 95.0582 19.93L90.6663 27.0669C90.4263 27.4569 89.9559 27.6392 89.5158 27.5127Z" fill="#393838"/>
<path d="M83.0993 15.0943C83.1763 17.6242 81.1878 19.7374 78.658 19.8144C76.1281 19.8914 74.0148 17.9029 73.9379 15.373C73.8609 12.8431 75.8494 10.7299 78.3792 10.6529C80.9091 10.5759 83.0224 12.5644 83.0993 15.0943Z" fill="#393838"/>
<path d="M79.1453 14.2555C79.8081 14.2555 80.3453 13.7182 80.3453 13.0555C80.3453 12.3928 79.8081 11.8555 79.1453 11.8555C78.4826 11.8555 77.9453 12.3928 77.9453 13.0555C77.9453 13.7182 78.4826 14.2555 79.1453 14.2555Z" fill="#3CBBDB"/>
</g>
</g>
<g clip-path="url(#clip2_21_112)">
<mask id="mask2_21_112" style="mask-type:luminance" maskUnits="userSpaceOnUse" x="228" y="223" width="85" height="85">
<path d="M313 223H228V308H313V223Z" fill="white"/>
</mask>
<g mask="url(#mask2_21_112)">
<path d="M270.5 308C293.972 308 313 288.972 313 265.5C313 242.028 293.972 223 270.5 223C247.028 223 228 242.028 228 265.5C228 288.972 247.028 308 270.5 308Z" fill="#3CBBDB"/>
<path d="M309.198 283.094C311.64 277.733 313 271.775 313 265.5C313 263.26 312.826 261.06 312.493 258.913L311.481 259.204C307.926 260.227 305.477 263.479 305.477 267.179L302.816 267.907C300.328 268.588 298.603 270.848 298.603 273.426H298.261C294.916 273.426 291.81 275.164 290.061 278.016L309.198 283.094Z" fill="white"/>
<path d="M231.859 283.22C229.5 278.085 228.135 272.399 228.01 266.408L229.024 266.223C231.704 265.735 234.317 267.361 235.062 269.981L235.108 270.143L236.118 270.088C238.399 269.963 240.395 271.609 240.708 273.873L242.312 273.791C244.129 273.698 245.833 274.679 246.666 276.297L247.71 278.324L231.859 283.22Z" fill="white"/>
<path d="M309.574 282.245C303.074 297.391 288.026 307.999 270.5 307.999C252.974 307.999 237.926 297.391 231.426 282.245C242.421 278.426 255.916 276.177 270.5 276.177C285.084 276.177 298.579 278.426 309.574 282.245Z" fill="#2298B6"/>
<path d="M270.5 302.071C278.351 302.071 284.716 300.949 284.716 299.564C284.716 298.179 278.351 297.056 270.5 297.056C262.648 297.056 256.284 298.179 256.284 299.564C256.284 300.949 262.648 302.071 270.5 302.071Z" fill="#186B81"/>
<path d="M296.729 265.782C293.209 284.059 279.225 296.733 265.753 294.138C252.281 291.543 244.981 276.934 248.501 258.657C252.021 240.38 266.941 228.149 279.469 230.007C294.806 232.283 300.249 247.505 296.729 265.782Z" fill="#F58C12"/>
<path d="M274.584 229.077L281.313 230.374L266.4 294.263L260.818 293.187L274.584 229.077Z" fill="#F58C12"/>
<path d="M291.93 264.858C288.409 283.135 274.426 295.808 260.954 293.213C247.482 290.619 240.182 276.01 243.702 257.733C247.222 239.455 262.142 227.224 274.669 229.083C290.007 231.359 295.45 246.58 291.93 264.858Z" fill="#FFB140"/>
<path d="M290.119 264.484C286.851 281.449 273.869 293.212 261.361 290.803C248.853 288.394 242.074 274.834 245.342 257.868C248.609 240.903 262.46 229.551 274.092 231.277C288.332 233.39 293.386 247.519 290.119 264.484Z" fill="white"/>
<path d="M259.912 290.468C248.336 287.322 242.203 274.167 245.342 257.868C247.143 248.52 252.156 240.876 258.242 236.185L266.754 260.236L259.912 290.468Z" fill="#F58C12"/>
<path fill-rule="evenodd" clip-rule="evenodd" d="M271.51 242.4C271.68 242.445 271.781 242.62 271.736 242.79L267.474 258.69C267.428 258.86 267.253 258.961 267.083 258.915C266.913 258.87 266.812 258.695 266.858 258.525L271.12 242.625C271.165 242.455 271.34 242.354 271.51 242.4Z" fill="black"/>
<path fill-rule="evenodd" clip-rule="evenodd" d="M267.104 259.864C267.207 260.007 267.174 260.206 267.031 260.309L261.369 265.496C261.226 265.599 261.027 265.566 260.924 265.423C260.822 265.28 260.854 265.081 260.997 264.978L266.659 259.791C266.802 259.688 267.002 259.721 267.104 259.864Z" fill="black"/>
<path d="M266.344 262.029C267.203 262.194 268.058 261.501 268.254 260.481C268.451 259.462 267.914 258.501 267.055 258.335C266.197 258.17 265.342 258.863 265.145 259.883C264.949 260.903 265.485 261.863 266.344 262.029Z" fill="black"/>
<path fill-rule="evenodd" clip-rule="evenodd" d="M246.513 258.923C246.547 258.751 246.714 258.637 246.887 258.671L248.89 259.057C249.063 259.09 249.176 259.257 249.143 259.43C249.109 259.603 248.942 259.716 248.769 259.683L246.766 259.297C246.593 259.263 246.48 259.096 246.513 258.923Z" fill="black"/>
<path fill-rule="evenodd" clip-rule="evenodd" d="M284.779 264.125C284.805 263.951 284.967 263.831 285.141 263.856L287.159 264.153C287.334 264.179 287.454 264.341 287.428 264.515C287.403 264.689 287.241 264.81 287.067 264.784L285.048 264.487C284.874 264.461 284.754 264.299 284.779 264.125Z" fill="black"/>
<path fill-rule="evenodd" clip-rule="evenodd" d="M260.822 285.263C260.994 285.3 261.103 285.47 261.065 285.642L260.63 287.635C260.592 287.807 260.422 287.916 260.25 287.878C260.078 287.841 259.969 287.671 260.007 287.499L260.442 285.506C260.48 285.334 260.65 285.225 260.822 285.263Z" fill="black"/>
<path fill-rule="evenodd" clip-rule="evenodd" d="M273.932 232.704C274.104 232.741 274.213 232.911 274.175 233.083L273.739 235.076C273.702 235.248 273.532 235.357 273.36 235.32C273.188 235.282 273.079 235.112 273.117 234.94L273.552 232.947C273.59 232.775 273.76 232.666 273.932 232.704Z" fill="black"/>
<path d="M255.974 274.079C256.083 274 256.01 273.832 255.876 273.841C255.366 273.872 254.842 273.822 254.322 273.681C251.759 272.985 250.244 270.342 250.94 267.778C251.153 266.995 251.546 266.31 252.064 265.755C252.156 265.657 252.073 265.494 251.943 265.528C250.327 265.948 248.975 267.2 248.506 268.927C247.811 271.492 249.325 274.135 251.888 274.83C253.35 275.227 254.837 274.905 255.974 274.079Z" fill="white"/>
<path d="M279.624 255.043C281.237 255.354 282.862 253.961 283.253 251.933C283.643 249.905 282.652 248.009 281.039 247.698C279.425 247.387 277.801 248.78 277.41 250.808C277.019 252.836 278.011 254.732 279.624 255.043Z" fill="#3CBBDB"/>
<path fill-rule="evenodd" clip-rule="evenodd" d="M285.136 247.639C285.214 247.741 285.195 247.888 285.092 247.966L283.849 248.917C283.746 248.995 283.599 248.976 283.521 248.873C283.443 248.771 283.462 248.624 283.565 248.546L284.808 247.595C284.911 247.517 285.058 247.536 285.136 247.639Z" fill="#3CBBDB"/>
<path fill-rule="evenodd" clip-rule="evenodd" d="M285.643 252.689C285.617 252.816 285.493 252.897 285.367 252.871L283.833 252.555C283.707 252.529 283.626 252.406 283.652 252.279C283.678 252.153 283.801 252.072 283.928 252.098L285.461 252.413C285.587 252.439 285.669 252.563 285.643 252.689Z" fill="#3CBBDB"/>
<path fill-rule="evenodd" clip-rule="evenodd" d="M276.777 250.727C276.742 250.852 276.613 250.924 276.489 250.89L274.981 250.471C274.857 250.436 274.784 250.307 274.818 250.183C274.853 250.059 274.982 249.986 275.106 250.02L276.614 250.439C276.739 250.474 276.811 250.603 276.777 250.727Z" fill="#3CBBDB"/>
<path fill-rule="evenodd" clip-rule="evenodd" d="M275.571 255.442C275.489 255.343 275.504 255.195 275.603 255.113L276.813 254.12C276.913 254.038 277.06 254.052 277.142 254.152C277.224 254.252 277.209 254.399 277.11 254.481L275.9 255.475C275.8 255.557 275.653 255.542 275.571 255.442Z" fill="#3CBBDB"/>
<path fill-rule="evenodd" clip-rule="evenodd" d="M282.802 256.9C282.915 256.838 282.956 256.696 282.894 256.583L282.14 255.211C282.078 255.098 281.936 255.056 281.823 255.119C281.71 255.181 281.668 255.323 281.73 255.436L282.484 256.808C282.546 256.921 282.689 256.962 282.802 256.9Z" fill="#3CBBDB"/>
<path fill-rule="evenodd" clip-rule="evenodd" d="M278.652 247.661C278.765 247.599 278.806 247.457 278.744 247.344L277.99 245.972C277.928 245.859 277.786 245.817 277.673 245.88C277.56 245.942 277.519 246.084 277.581 246.197L278.335 247.569C278.397 247.682 278.539 247.723 278.652 247.661Z" fill="#3CBBDB"/>
<path fill-rule="evenodd" clip-rule="evenodd" d="M281.304 247.275C281.429 247.307 281.556 247.231 281.588 247.106L281.974 245.589C282.006 245.464 281.931 245.337 281.806 245.305C281.681 245.273 281.553 245.349 281.521 245.474L281.135 246.991C281.103 247.116 281.179 247.243 281.304 247.275Z" fill="#3CBBDB"/>
<path fill-rule="evenodd" clip-rule="evenodd" d="M278.646 257.78C278.773 257.804 278.895 257.722 278.92 257.595L279.222 256.059C279.247 255.933 279.164 255.81 279.038 255.785C278.911 255.76 278.788 255.843 278.763 255.969L278.462 257.505C278.437 257.632 278.519 257.755 278.646 257.78Z" fill="#3CBBDB"/>
</g>
</g>
<g clip-path="url(#clip3_21_112)">
<mask id="mask3_21_112" style="mask-type:luminance" maskUnits="userSpaceOnUse" x="48" y="248" width="80" height="81">
<path d="M128 248.5H48V328.5H128V248.5Z" fill="white"/>
</mask>
<g mask="url(#mask3_21_112)">
<path d="M88 328.5C110.091 328.5 128 310.591 128 288.5C128 266.409 110.091 248.5 88 248.5C65.9086 248.5 48 266.409 48 288.5C48 310.591 65.9086 328.5 88 328.5Z" fill="#1BB1F8"/>
<path d="M88 328.5C110.091 328.5 128 310.591 128 288.5C128 266.409 110.091 248.5 88 248.5C65.9086 248.5 48 266.409 48 288.5C48 310.591 65.9086 328.5 88 328.5Z" fill="#3CBBDB"/>
<path d="M124.775 304.26C118.658 318.515 104.495 328.499 87.9999 328.499C71.5049 328.499 57.3418 318.515 51.2246 304.26C61.5726 300.666 74.2735 298.549 87.9999 298.549C101.726 298.549 114.427 300.666 124.775 304.26Z" fill="#2298B6"/>
<path d="M83.44 320.451C88.7776 320.451 93.1046 319.345 93.1046 317.981C93.1046 316.616 88.7776 315.51 83.44 315.51C78.1024 315.51 73.7754 316.616 73.7754 317.981C73.7754 319.345 78.1024 320.451 83.44 320.451Z" fill="#186B81"/>
<path fill-rule="evenodd" clip-rule="evenodd" d="M74.9758 271.743C74.9758 264.126 81.0757 257.951 88.6004 257.951C96.125 257.951 102.225 264.126 102.225 271.743C102.225 274.504 101.084 276.763 99.9029 279.102C99.7134 279.477 99.5228 279.855 99.3357 280.237L84.5732 310.672C84.5173 310.787 84.3919 310.852 84.2658 310.829L82.5007 310.52L79.8669 294.79L75.792 277.605C75.3068 275.555 74.9758 273.73 74.9758 271.743ZM90.2629 278.828C94.1541 278.828 97.3086 275.656 97.3086 271.743C97.3086 267.83 94.1541 264.658 90.2629 264.658C86.3718 264.658 83.2173 267.83 83.2173 271.743C83.2173 275.656 86.3718 278.828 90.2629 278.828Z" fill="#C48326"/>
<path fill-rule="evenodd" clip-rule="evenodd" d="M73.7754 271.588C73.7754 264.217 79.7115 258.241 87.0341 258.241C94.3566 258.241 100.293 264.217 100.293 271.588C100.293 274.26 99.1828 276.445 98.0331 278.709C97.8487 279.073 97.6632 279.438 97.4811 279.808L82.5006 310.52L74.5697 277.261C74.0975 275.277 73.7754 273.511 73.7754 271.588ZM87.0341 278.445C90.8208 278.445 93.8905 275.375 93.8905 271.588C93.8905 267.801 90.8208 264.732 87.0341 264.732C83.2474 264.732 80.1777 267.801 80.1777 271.588C80.1777 275.375 83.2474 278.445 87.0341 278.445Z" fill="#FFB140"/>
</g>
</g>
<defs>
<clipPath id="clip0_21_112">
<rect width="315" height="198" fill="white" transform="translate(0 60)"/>
</clipPath>
<clipPath id="clip1_21_112">
<rect width="120" height="120" fill="white" transform="translate(7)"/>
</clipPath>
<clipPath id="clip2_21_112">
<rect width="85" height="85" fill="white" transform="translate(228 223)"/>
</clipPath>
<clipPath id="clip3_21_112">
<rect width="80" height="81" fill="white" transform="translate(48 248)"/>
</clipPath>
</defs>
</svg>
