<svg width="375" height="233" viewBox="0 0 375 233" fill="none" xmlns="http://www.w3.org/2000/svg">
<mask id="mask0_244_351" style="mask-type:alpha" maskUnits="userSpaceOnUse" x="0" y="0" width="375" height="233">
<path d="M0 0H375V185C375 201.802 375 210.202 371.73 216.62C368.854 222.265 364.265 226.854 358.62 229.73C352.202 233 343.802 233 327 233H48C31.1984 233 22.7976 233 16.3803 229.73C10.7354 226.854 6.14601 222.265 3.2698 216.62C0 210.202 0 201.802 0 185V0Z" fill="url(#paint0_linear_244_351)"/>
</mask>
<g mask="url(#mask0_244_351)">
<mask id="mask1_244_351" style="mask-type:luminance" maskUnits="userSpaceOnUse" x="-55" y="-25" width="500" height="292">
<path d="M444.379 -25H-55V267H444.379V-25Z" fill="white"/>
</mask>
<g mask="url(#mask1_244_351)">
<path d="M408.124 -12.9023H-16.981V235.667H408.124V-12.9023Z" fill="white"/>
<path d="M408.124 -12.9023H-16.981V49.5975H408.124V-12.9023Z" fill="#3CBBDB"/>
<path d="M408.124 201.858H-16.981V235.668H408.124V201.858Z" fill="#FFCC8C"/>
<path d="M42.2639 204.829L-50 243.56" stroke="#C46500"/>
<path d="M71.7848 204.829L-20.479 243.56" stroke="#C46500"/>
<path d="M104.258 204.829L11.9941 243.56" stroke="#C46500"/>
<path d="M136.731 204.829L44.4673 243.56" stroke="#C46500"/>
<path d="M169.204 204.829L76.9404 243.56" stroke="#C46500"/>
<path d="M345.878 204.829L438.144 243.56" stroke="#C46500"/>
<path d="M316.357 204.829L408.623 243.56" stroke="#C46500"/>
<path d="M283.884 204.829L376.149 243.56" stroke="#C46500"/>
<path d="M251.411 204.829L343.676 243.56" stroke="#C46500"/>
<path d="M218.938 204.829L311.203 243.56" stroke="#C46500"/>
<path d="M370.632 40.0793H20.8062V205.435H370.632V40.0793Z" fill="#3CBBDB"/>
<path opacity="0.2" d="M84.8439 40.2408L84.6738 205.397" stroke="black" stroke-width="2"/>
<path opacity="0.2" d="M148.315 40.2408L148.145 205.397" stroke="black" stroke-width="2"/>
<path opacity="0.2" d="M211.785 40.2408L211.615 205.397" stroke="black" stroke-width="2"/>
<path opacity="0.2" d="M275.255 40.2408L275.085 205.397" stroke="black" stroke-width="2"/>
<path opacity="0.2" d="M338.725 40.2408L338.557 205.397" stroke="black" stroke-width="2"/>
<path opacity="0.2" d="M370.785 146.953H20.8062" stroke="black" stroke-width="2"/>
<path d="M370.632 40.0737L408.419 26.6215L410.19 219.477L370.632 205.43V40.0737Z" fill="#2298B6"/>
<path d="M20.8064 40.0737L-16.9807 26.6215L-18.752 219.477L20.8064 205.43V40.0737Z" fill="#2298B6"/>
<path d="M16.384 68.5259H13.5029V84.1668H16.384V68.5259Z" fill="#070606"/>
<path d="M10.1992 67.0422L18.8152 68.2327V71.5546L10.1992 70.3641V67.0422Z" fill="#070606"/>
<path d="M10.1992 81.566L18.8152 82.7564V86.0783L10.1992 84.8879V81.566Z" fill="#070606"/>
<path d="M15.5336 83.9079L31.9597 65.5154L29.2007 66.7594L13.8647 83.9481L15.5336 83.9079Z" fill="#171717"/>
<path d="M30.6008 63.9532L27.6924 65.2125L29.1676 66.9166L31.9567 65.5197L30.6008 63.9532Z" fill="#6D3838"/>
<path d="M27.6931 65.2135L12.3594 82.8889L13.8495 83.9505L29.168 66.9173L27.6931 65.2135Z" fill="#252525"/>
<path d="M17.5429 70.2845L44.0656 62.7869L40.9202 62.5333L16.146 69.5471L17.5429 70.2845Z" fill="#171717"/>
<path d="M44.0604 60.8787L40.7817 60.5687V62.6468L44.0604 62.7892V60.8787Z" fill="#414040"/>
<path d="M40.7812 60.5697L15.6631 67.9837L16.1316 69.542L40.7812 62.6475V60.5697Z" fill="#252525"/>
<path d="M39.7346 73.3996L29.5654 96.493" stroke="black" stroke-width="2"/>
<path d="M40.0328 63.8438C40.0328 63.7124 39.9006 63.6057 39.7376 63.6057C39.5746 63.6057 39.4424 63.7124 39.4424 63.8438H40.0328ZM40.0328 73.9242V63.8438H39.4424V73.9242H40.0328Z" fill="black"/>
<path d="M36.4585 93.7784L39.6748 73.6583" stroke="black" stroke-width="2"/>
<path d="M42.8911 93.7784L39.6748 73.6583" stroke="black" stroke-width="2"/>
<path d="M39.7202 73.3794L49.7899 96.4931" stroke="black" stroke-width="2"/>
<path d="M39.875 93.0702C36.6395 93.0702 33.4039 93.5947 30.3689 94.6435C27.7754 95.5397 26.0939 97.5961 26.0939 99.8713C24.8561 112.629 23.1232 146.323 26.0939 179.045C26.0939 181.09 27.5337 182.956 29.8074 183.86C32.9812 185.121 36.4281 185.751 39.875 185.751V93.0702Z" fill="#4F4F4F"/>
<path d="M39.8042 93.0702C43.0397 93.0702 46.2752 93.5947 49.3106 94.6435C51.904 95.5397 53.5856 97.5961 53.5856 99.8713C54.8234 112.629 56.5563 146.323 53.5856 179.045C53.5856 181.09 52.1455 182.956 49.8718 183.86C46.6983 185.121 43.2514 185.751 39.8042 185.751V93.0702Z" fill="#4F4F4F"/>
<path d="M48.5334 94.3878C48.1425 94.2654 47.7487 94.1516 47.3525 94.0464V184.714C47.7493 184.601 48.1428 184.48 48.5334 184.349V94.3878Z" fill="#3F3F3F"/>
<path d="M54.5963 114.401H25.0825C25.0099 115.849 24.9414 117.359 24.8779 118.925H54.8009C54.7374 117.359 54.6686 115.849 54.5963 114.401Z" fill="#3F3F3F"/>
<path d="M39.7377 63.8442C40.0305 63.8442 40.2679 63.7588 40.2679 63.6535C40.2679 63.5482 40.0305 63.4628 39.7377 63.4628C39.4449 63.4628 39.2075 63.5482 39.2075 63.6535C39.2075 63.7588 39.4449 63.8442 39.7377 63.8442Z" fill="black"/>
<path fill-rule="evenodd" clip-rule="evenodd" d="M332.163 109.795L409.691 93.1595L411.286 97.9914L333.757 114.627C332.104 114.982 330.406 114.188 329.964 112.854C329.524 111.52 330.51 110.15 332.163 109.795Z" fill="#F6F8FE"/>
<path d="M349.533 115.547L351.777 115.476L350.168 97.7073L347.142 97.8019L343.139 107.453L349.533 115.547Z" fill="#232323"/>
<path d="M354.767 106.081C355.443 110.98 353.099 115.218 349.536 115.547C345.973 115.876 342.536 112.171 341.863 107.272C341.19 102.373 343.531 98.1349 347.095 97.8059C350.658 97.4766 354.094 101.182 354.767 106.081Z" fill="#232323"/>
<path d="M352.458 115.447C356.082 115.113 358.473 110.87 357.799 105.971C357.125 101.071 353.641 97.3712 350.018 97.7058C346.395 98.0403 344.004 102.283 344.678 107.182C345.352 112.081 348.835 115.782 352.458 115.447Z" fill="#474747"/>
<path d="M352.518 110.33C353.871 110.205 354.761 108.595 354.505 106.735C354.249 104.875 352.944 103.468 351.591 103.593C350.238 103.718 349.348 105.327 349.604 107.188C349.86 109.048 351.164 110.455 352.518 110.33Z" fill="black"/>
<path d="M354.762 116.591L357.436 116.505L355.517 95.3345L351.913 95.4468L347.139 106.946L354.762 116.591Z" fill="#232323"/>
<path d="M360.999 105.311C361.802 111.148 359.009 116.198 354.764 116.591C350.519 116.983 346.425 112.568 345.622 106.731C344.819 100.894 347.608 95.844 351.856 95.4519C356.102 95.0598 360.196 99.474 360.999 105.311Z" fill="#232323"/>
<path d="M358.247 116.471C362.564 116.073 365.413 111.017 364.61 105.18C363.807 99.3429 359.656 94.934 355.339 95.3327C351.022 95.7313 348.173 100.787 348.976 106.624C349.779 112.461 353.93 116.87 358.247 116.471Z" fill="#474747"/>
<path d="M358.316 110.374C359.928 110.225 360.988 108.307 360.683 106.091C360.378 103.874 358.824 102.198 357.212 102.347C355.599 102.496 354.539 104.413 354.844 106.63C355.149 108.847 356.703 110.523 358.316 110.374Z" fill="black"/>
<path d="M360.362 117.838L363.42 117.751L361.053 92.6929L356.931 92.8067L351.567 106.386L360.362 117.838Z" fill="#232323"/>
<path d="M367.402 104.526C368.37 111.437 365.217 117.396 360.364 117.838C355.514 118.279 350.796 113.035 349.831 106.124C348.863 99.2133 352.016 93.2533 356.866 92.8121C361.719 92.3707 366.437 97.6152 367.402 104.526Z" fill="#232323"/>
<path d="M364.349 117.715C369.282 117.266 372.499 111.301 371.533 104.39C370.567 97.4793 365.784 92.2409 360.85 92.6895C355.917 93.1382 352.7 99.1041 353.666 106.015C354.632 112.925 359.415 118.164 364.349 117.715Z" fill="#474747"/>
<path d="M364.376 110.502C366.219 110.334 367.416 108.071 367.049 105.447C366.682 102.823 364.891 100.831 363.048 100.999C361.205 101.166 360.009 103.429 360.376 106.054C360.743 108.678 362.534 110.669 364.376 110.502Z" fill="black"/>
<path d="M378.21 51.1636L368.424 52.946L369.168 209.469H378.21V51.1636Z" fill="#252525"/>
<path d="M373.315 123.434C374.131 123.434 374.791 122.634 374.791 121.648C374.791 120.662 374.131 119.862 373.315 119.862C372.5 119.862 371.839 120.662 371.839 121.648C371.839 122.634 372.5 123.434 373.315 123.434Z" fill="white"/>
<path d="M373.315 109.386C374.131 109.386 374.791 108.587 374.791 107.601C374.791 106.614 374.131 105.815 373.315 105.815C372.5 105.815 371.839 106.614 371.839 107.601C371.839 108.587 372.5 109.386 373.315 109.386Z" fill="white"/>
<path d="M373.315 137.481C374.131 137.481 374.791 136.682 374.791 135.696C374.791 134.709 374.131 133.91 373.315 133.91C372.5 133.91 371.839 134.709 371.839 135.696C371.839 136.682 372.5 137.481 373.315 137.481Z" fill="white"/>
<path d="M373.315 151.529C374.131 151.529 374.791 150.729 374.791 149.743C374.791 148.757 374.131 147.958 373.315 147.958C372.5 147.958 371.839 148.757 371.839 149.743C371.839 150.729 372.5 151.529 373.315 151.529Z" fill="white"/>
<path d="M373.315 165.576C374.131 165.576 374.791 164.777 374.791 163.791C374.791 162.804 374.131 162.005 373.315 162.005C372.5 162.005 371.839 162.804 371.839 163.791C371.839 164.777 372.5 165.576 373.315 165.576Z" fill="white"/>
<path d="M373.315 179.624C374.131 179.624 374.791 178.824 374.791 177.838C374.791 176.852 374.131 176.052 373.315 176.052C372.5 176.052 371.839 176.852 371.839 177.838C371.839 178.824 372.5 179.624 373.315 179.624Z" fill="white"/>
<path d="M374.198 109.034C374.558 108.709 374.791 108.188 374.791 107.601C374.791 107.017 374.561 106.498 374.204 106.172H372.43C372.073 106.498 371.839 107.017 371.839 107.601C371.839 108.188 372.076 108.709 372.436 109.034H374.198Z" fill="#C49D6B"/>
<path fill-rule="evenodd" clip-rule="evenodd" d="M414.279 97.3486L366.198 107.666C364.542 108.021 362.844 107.227 362.404 105.893C361.964 104.559 362.947 103.189 364.604 102.834L412.685 92.5167L414.279 97.3486Z" fill="#F6F8FE"/>
<path d="M373.72 109.034H370.219L370.248 106.172H373.72V109.034Z" fill="#C49D6B"/>
<path d="M370.228 109.029C370.88 109.029 371.409 108.39 371.409 107.601C371.409 106.812 370.88 106.172 370.228 106.172C369.576 106.172 369.047 106.812 369.047 107.601C369.047 108.39 369.576 109.029 370.228 109.029Z" fill="#FFCC8C"/>
<path d="M40.8403 36.6915H350.008" stroke="#0D0D0D" stroke-width="4" stroke-linecap="round"/>
<path d="M47.0181 36.6915V41.6363" stroke="#0D0D0D" stroke-width="4"/>
<path d="M44.8121 41.4313L47.7016 40.4912C48.9186 40.0952 50.3033 40.5699 50.7943 41.5515L50.7943 41.5515C51.2853 42.5331 50.6967 43.6499 49.4796 44.0458L46.5901 44.986C45.3731 45.382 43.9884 44.9073 43.4974 43.9257L43.4974 43.9257C43.0064 42.9441 43.595 41.8273 44.8121 41.4313Z" fill="url(#paint1_linear_244_351)"/>
<path d="M46.0034 44.4312C45.2866 44.6679 44.4365 44.3301 44.1048 43.6766C43.7731 43.0232 44.0853 42.3016 44.8021 42.0648C45.519 41.8281 46.369 42.166 46.7007 42.8194C47.0325 43.4728 46.7203 44.1945 46.0034 44.4312Z" fill="white"/>
<g filter="url(#filter0_f_244_351)">
<path d="M46.0039 44.4312C45.2871 44.6679 44.437 44.3301 44.1053 43.6767C43.7736 43.0232 44.0858 42.3016 44.8026 42.0649C45.5195 41.8282 46.3695 42.166 46.7012 42.8195C47.033 43.4729 46.7208 44.1945 46.0039 44.4312Z" fill="white"/>
</g>
<path d="M80.042 36.6915V41.6363" stroke="#0D0D0D" stroke-width="4"/>
<path d="M82.2475 41.4313L79.358 40.4912C78.1409 40.0952 76.7563 40.5699 76.2653 41.5515L76.2653 41.5515C75.7743 42.5331 76.3629 43.6499 77.58 44.0458L80.4694 44.986C81.6865 45.382 83.0712 44.9073 83.5622 43.9257L83.5622 43.9257C84.0532 42.9441 83.4646 41.8273 82.2475 41.4313Z" fill="url(#paint2_linear_244_351)"/>
<path d="M81.0566 44.4311C81.7735 44.6678 82.6235 44.3299 82.9552 43.6765C83.287 43.0231 82.9748 42.3014 82.2579 42.0647C81.5411 41.828 80.691 42.1658 80.3593 42.8193C80.0276 43.4727 80.3398 44.1943 81.0566 44.4311Z" fill="white"/>
<g filter="url(#filter1_f_244_351)">
<path d="M81.0566 44.4311C81.7735 44.6678 82.6235 44.3299 82.9552 43.6765C83.287 43.0231 82.9748 42.3014 82.2579 42.0647C81.5411 41.828 80.691 42.1658 80.3593 42.8193C80.0276 43.4727 80.3398 44.1943 81.0566 44.4311Z" fill="white"/>
</g>
<path d="M112.632 36.6915V41.6363" stroke="#0D0D0D" stroke-width="4"/>
<path d="M110.426 41.4313L113.315 40.4912C114.532 40.0952 115.917 40.5699 116.408 41.5515L116.408 41.5515C116.899 42.5331 116.31 43.6499 115.093 44.0458L112.204 44.986C110.987 45.382 109.602 44.9073 109.111 43.9257L109.111 43.9257C108.62 42.9441 109.209 41.8273 110.426 41.4313Z" fill="url(#paint3_linear_244_351)"/>
<path d="M111.617 44.4312C110.9 44.6679 110.05 44.3301 109.719 43.6766C109.387 43.0232 109.699 42.3016 110.416 42.0648C111.133 41.8281 111.983 42.166 112.315 42.8194C112.646 43.4728 112.334 44.1945 111.617 44.4312Z" fill="white"/>
<g filter="url(#filter2_f_244_351)">
<path d="M111.617 44.4312C110.9 44.6679 110.05 44.3301 109.719 43.6767C109.387 43.0232 109.699 42.3016 110.416 42.0649C111.133 41.8282 111.983 42.166 112.315 42.8195C112.646 43.4729 112.334 44.1945 111.617 44.4312Z" fill="white"/>
</g>
<path d="M344.373 36.6915V41.6363" stroke="#0D0D0D" stroke-width="4"/>
<path d="M346.579 41.4313L343.69 40.4912C342.472 40.0952 341.088 40.5699 340.597 41.5515L340.597 41.5515C340.106 42.5331 340.694 43.6498 341.911 44.0458L344.801 44.986C346.018 45.382 347.403 44.9073 347.894 43.9257L347.894 43.9257C348.385 42.9441 347.796 41.8273 346.579 41.4313Z" fill="url(#paint4_linear_244_351)"/>
<path d="M345.39 44.431C346.107 44.6678 346.957 44.3299 347.289 43.6765C347.62 43.0231 347.308 42.3014 346.591 42.0647C345.875 41.828 345.025 42.1658 344.693 42.8193C344.361 43.4727 344.673 44.1943 345.39 44.431Z" fill="white"/>
<g filter="url(#filter3_f_244_351)">
<path d="M345.39 44.431C346.106 44.6677 346.957 44.3299 347.288 43.6764C347.62 43.023 347.308 42.3014 346.591 42.0647C345.874 41.8279 345.024 42.1658 344.692 42.8192C344.361 43.4727 344.673 44.1943 345.39 44.431Z" fill="white"/>
</g>
<path d="M311.351 36.6915V41.6363" stroke="#0D0D0D" stroke-width="4"/>
<path d="M309.145 41.4313L312.034 40.4912C313.251 40.0952 314.636 40.5699 315.127 41.5515L315.127 41.5515C315.618 42.5331 315.029 43.6499 313.812 44.0458L310.923 44.986C309.706 45.382 308.321 44.9073 307.83 43.9257L307.83 43.9257C307.339 42.9441 307.928 41.8273 309.145 41.4313Z" fill="url(#paint5_linear_244_351)"/>
<path d="M310.336 44.4312C309.619 44.6679 308.769 44.3301 308.437 43.6766C308.106 43.0232 308.418 42.3016 309.135 42.0648C309.851 41.8281 310.702 42.166 311.033 42.8194C311.365 43.4728 311.053 44.1945 310.336 44.4312Z" fill="white"/>
<g filter="url(#filter4_f_244_351)">
<path d="M310.335 44.4312C309.619 44.6679 308.769 44.3301 308.437 43.6767C308.105 43.0232 308.417 42.3016 309.134 42.0649C309.851 41.8282 310.701 42.166 311.033 42.8195C311.364 43.4729 311.052 44.1945 310.335 44.4312Z" fill="white"/>
</g>
<path d="M278.759 36.6915V41.6363" stroke="#0D0D0D" stroke-width="4"/>
<path d="M280.966 41.4313L278.077 40.4912C276.86 40.0952 275.475 40.5699 274.984 41.5515L274.984 41.5515C274.493 42.5331 275.082 43.6498 276.299 44.0458L279.188 44.986C280.405 45.382 281.79 44.9073 282.281 43.9257L282.281 43.9257C282.772 42.9441 282.183 41.8273 280.966 41.4313Z" fill="url(#paint6_linear_244_351)"/>
<path d="M279.776 44.431C280.493 44.6678 281.343 44.3299 281.675 43.6765C282.007 43.0231 281.694 42.3014 280.978 42.0647C280.261 41.828 279.411 42.1658 279.079 42.8193C278.747 43.4727 279.06 44.1943 279.776 44.431Z" fill="white"/>
<g filter="url(#filter5_f_244_351)">
<path d="M279.776 44.431C280.493 44.6677 281.343 44.3299 281.675 43.6764C282.007 43.023 281.694 42.3014 280.978 42.0647C280.261 41.8279 279.411 42.1658 279.079 42.8192C278.747 43.4727 279.06 44.1943 279.776 44.431Z" fill="white"/>
</g>
<path d="M20.3791 36.818C20.6778 36.9232 21.0259 36.8132 21.1564 36.572C21.2868 36.3311 21.1505 36.0504 20.8517 35.9451L20.3791 36.818ZM20.8517 35.9451L-17.7607 22.3431L-18.2334 23.2159L20.3791 36.818L20.8517 35.9451Z" fill="#0D0D0D"/>
<path d="M14.3999 34.3618V38.7513" stroke="#0D0D0D" stroke-width="4"/>
<path d="M16.6059 38.5464L13.7164 37.6062C12.4993 37.2102 11.1147 37.685 10.6237 38.6666L10.6237 38.6666C10.1327 39.6481 10.7213 40.7649 11.9384 41.1609L14.8278 42.101C16.0449 42.497 17.4296 42.0223 17.9206 41.0407L17.9206 41.0407C18.4116 40.0591 17.823 38.9424 16.6059 38.5464Z" fill="url(#paint7_linear_244_351)"/>
<path d="M15.4145 41.5463C16.1314 41.7831 16.9814 41.4452 17.3132 40.7918C17.6449 40.1383 17.3327 39.4167 16.6158 39.18C15.899 38.9433 15.049 39.2811 14.7172 39.9346C14.3855 40.588 14.6977 41.3096 15.4145 41.5463Z" fill="white"/>
<g filter="url(#filter6_f_244_351)">
<path d="M15.4145 41.5463C16.1314 41.7831 16.9814 41.4452 17.3132 40.7918C17.6449 40.1383 17.3327 39.4167 16.6158 39.18C15.899 38.9433 15.049 39.2811 14.7172 39.9346C14.3855 40.588 14.6977 41.3096 15.4145 41.5463Z" fill="white"/>
</g>
<path d="M-0.811593 32.1178L-3.70108 31.1777C-4.91815 30.7817 -6.30281 31.2564 -6.79381 32.238L-6.79381 32.238C-7.2848 33.2196 -6.6962 34.3364 -5.47913 34.7324L-2.58964 35.6725C-1.37257 36.0685 0.0120949 35.5938 0.503088 34.6122L0.50309 34.6122C0.994083 33.6306 0.405479 32.5138 -0.811593 32.1178Z" fill="url(#paint8_linear_244_351)"/>
<path d="M-1.84717 35.1178C-1.13033 35.3545 -0.280293 35.0167 0.0514337 34.3633C0.383161 33.7098 0.0709605 32.9882 -0.645885 32.7515C-1.36273 32.5148 -2.21277 32.8526 -2.54449 33.506C-2.87622 34.1595 -2.56402 34.8811 -1.84717 35.1178Z" fill="white"/>
<g filter="url(#filter7_f_244_351)">
<path d="M-1.84717 35.1178C-1.13033 35.3545 -0.280293 35.0167 0.0514337 34.3633C0.383161 33.7098 0.0709605 32.9882 -0.645885 32.7515C-1.36273 32.5148 -2.21277 32.8526 -2.54449 33.506C-2.87622 34.1595 -2.56402 34.8811 -1.84717 35.1178Z" fill="white"/>
</g>
<path d="M370.044 36.818C369.743 36.9232 369.395 36.8132 369.265 36.572C369.135 36.3311 369.271 36.0504 369.569 35.9451L370.044 36.818ZM369.569 35.9451L408.183 22.3431L408.655 23.2159L370.044 36.818L369.569 35.9451Z" fill="#0D0D0D"/>
<path d="M376.022 34.3618V38.7513" stroke="#0D0D0D" stroke-width="4"/>
<path d="M373.816 38.5464L376.706 37.6062C377.923 37.2102 379.308 37.685 379.799 38.6666L379.799 38.6666C380.29 39.6481 379.701 40.7649 378.484 41.1609L375.595 42.101C374.377 42.497 372.993 42.0223 372.502 41.0407L372.502 41.0407C372.011 40.0591 372.599 38.9424 373.816 38.5464Z" fill="url(#paint9_linear_244_351)"/>
<path d="M375.008 41.5463C374.291 41.783 373.441 41.4452 373.109 40.7917C372.777 40.1383 373.09 39.4167 373.807 39.18C374.523 38.9432 375.373 39.2811 375.705 39.9345C376.037 40.588 375.725 41.3096 375.008 41.5463Z" fill="white"/>
<g filter="url(#filter8_f_244_351)">
<path d="M375.008 41.5462C374.291 41.7829 373.441 41.445 373.109 40.7916C372.777 40.1382 373.09 39.4165 373.807 39.1798C374.523 38.9431 375.373 39.2809 375.705 39.9344C376.037 40.5878 375.725 41.3094 375.008 41.5462Z" fill="white"/>
</g>
<path fill-rule="evenodd" clip-rule="evenodd" d="M168.543 188.005C169.049 188.831 168.629 189.83 167.605 190.238C165.493 191.079 161.357 193.213 157.129 196.336C152.902 199.457 148.723 203.466 146.347 208.023C145.905 208.872 144.693 209.271 143.641 208.914C142.589 208.557 142.095 207.58 142.537 206.731C145.227 201.572 149.861 197.184 154.337 193.877C158.812 190.572 163.267 188.248 165.775 187.249C166.799 186.841 168.038 187.18 168.543 188.005Z" fill="#1D1D1D"/>
<path fill-rule="evenodd" clip-rule="evenodd" d="M222.591 188.005C222.086 188.831 222.506 189.83 223.529 190.238C225.642 191.079 229.778 193.213 234.006 196.336C238.232 199.457 242.412 203.466 244.788 208.023C245.23 208.872 246.442 209.271 247.494 208.914C248.546 208.557 249.04 207.58 248.598 206.731C245.908 201.572 241.274 197.184 236.797 193.877C232.323 190.572 227.868 188.248 225.359 187.249C224.336 186.841 223.097 187.18 222.591 188.005Z" fill="#1D1D1D"/>
<path d="M240.444 184.91H210.922V188.077H240.444V184.91Z" fill="#424242"/>
<path d="M235.251 186.796V182.362H237.184V186.796H235.251Z" fill="black"/>
<path d="M235.523 183.295L235.967 183.866H260.057L257.279 181.417C257.055 181.22 256.739 181.107 256.408 181.107H237.023C235.63 181.107 234.783 182.344 235.523 183.295Z" fill="#424242"/>
<path d="M235.969 183.844H260.135V185.841C260.135 186.367 259.606 186.794 258.954 186.794H235.969V183.844Z" fill="#1A1A1A"/>
<path d="M134.543 181.83C135.211 181.269 136.134 180.952 137.098 180.952H228.239C229.204 180.952 230.126 181.269 230.794 181.83L233.586 184.175H131.751L134.543 181.83Z" fill="#424242"/>
<path d="M131.751 184.175H233.586V186.037C233.586 186.563 233.058 186.99 232.405 186.99H132.932C132.28 186.99 131.751 186.563 131.751 186.037V184.175Z" fill="#1A1A1A"/>
<path d="M132.711 186.794H259.574V188.872C259.574 189.459 258.915 189.935 258.103 189.935H134.182C133.37 189.935 132.711 189.459 132.711 188.872V186.794Z" fill="black"/>
<path d="M192.892 142.12C195.113 140.425 198.51 139.601 199.931 139.402C192.609 142.958 192.705 150.576 193.669 153.941C194.29 158.825 190.605 162.379 188.684 163.545C189.084 164.314 189.227 166.255 186.597 167.863C183.31 169.873 176.222 162.428 173.638 159.674C172.184 158.125 169.513 155.323 167.292 153.149C165.739 151.629 164.601 149.841 164.146 147.906L164.057 147.529C163.637 145.74 164.75 143.944 166.777 143.141L170.939 141.494C171.094 141.433 171.282 141.466 171.391 141.575C171.778 141.962 171.613 142.539 171.056 142.751L167.492 144.106C166.478 144.492 166.144 145.523 166.793 146.26L167.781 147.38C168.469 148.161 169.942 148.069 170.472 147.211L171.746 145.154C171.961 144.806 172.506 144.687 172.91 144.9C173.332 145.123 173.506 145.56 173.418 145.96C173.165 147.112 173.082 149.092 172.806 150.871C172.464 153.08 179.776 157.098 183.474 158.831C182.126 154.418 184.994 150.702 186.597 149.396C186.835 143.991 190.893 142.293 192.892 142.12Z" fill="#FFA59A"/>
<path d="M192.912 142.106C195.133 140.42 198.515 139.601 199.932 139.402C199.607 139.559 199.297 139.725 199.002 139.897C196.172 140.424 193.822 141.564 192.911 142.135C192.911 142.125 192.911 142.116 192.912 142.106Z" fill="white"/>
<path d="M186.555 149.431C186.569 149.419 186.583 149.408 186.597 149.396C186.622 148.828 186.69 148.301 186.792 147.812C190.651 146.653 194.055 143.789 195.433 142.301V143.09C193.328 146 193.008 149.474 193.299 152.021L191.268 155.619C192.163 153.255 192.089 151.149 191.778 149.729C191.566 148.762 190.561 147.992 189.37 148.192C188.117 148.401 187.039 149.014 186.555 149.431Z" fill="#D78A80"/>
<path d="M172.982 151.713C174.125 153.989 180.208 157.301 183.474 158.831C183.505 158.954 183.436 158.708 183.474 158.831C185.875 159.087 186.884 160.177 187.266 160.59C190.724 158.973 192.376 152.617 192.256 150.117C192.451 150.985 192.854 151.66 193.316 152.17C193.4 152.837 193.525 153.437 193.669 153.941C194.29 158.825 190.605 162.379 188.684 163.545C189.084 164.315 189.227 166.255 186.597 167.863C185.097 168.781 182.805 167.729 180.511 166.052L180.431 165.933C185.482 166.076 185.965 163.062 184.334 162.284C182.546 161.432 179.633 159.643 178.836 158.428C178.198 157.456 173.548 154.45 171.303 153.068L172.982 151.713Z" fill="#D78A80"/>
<path d="M186.183 149.763C186.327 149.625 186.466 149.503 186.597 149.396C186.795 144.905 189.63 142.973 191.73 142.349C187.862 144.294 186.962 147.761 187.004 149.291L186.343 149.835L186.183 149.763Z" fill="white"/>
<path d="M164.076 147.604L164.09 147.666C164.287 148.263 164.5 148.908 164.725 149.586C165.313 150.878 166.2 152.08 167.293 153.149C169.513 155.323 172.185 158.125 173.638 159.674C176.223 162.428 183.311 169.873 186.597 167.863C189.186 166.28 189.088 164.375 188.703 163.582C187.726 168.26 184.79 167.868 183.442 167.085C173.944 160.961 166.573 151.546 164.076 147.604Z" fill="white"/>
<path d="M184.133 159.013L183.472 158.845C181.784 152.831 186.053 149.371 188.384 148.388C183.16 152.204 183.355 157.014 184.133 159.013Z" fill="white"/>
<path d="M174.727 221.106L175.378 219.894H180.446L180.44 219.945C180.37 220.578 180.563 221.212 180.989 221.746L182.486 223.624C183.656 225.092 182.276 227.012 180.114 226.922L175.637 226.738C174.924 226.707 174.212 226.814 173.56 227.05C172.11 227.576 170.537 227.848 168.947 227.848H165.498C164.594 227.848 164.271 226.884 165.052 226.514L172.773 222.883C173.643 222.474 174.327 221.851 174.727 221.106Z" fill="white"/>
<path d="M182.512 223.658C183.634 225.121 182.259 227.012 180.114 226.922L175.637 226.738C174.924 226.707 174.212 226.814 173.56 227.05C172.11 227.576 170.537 227.848 168.947 227.848H165.498C164.594 227.848 164.271 226.884 165.052 226.514L165.336 226.381C168.834 226.731 176.679 226.641 182.512 223.658Z" fill="black"/>
<path fill-rule="evenodd" clip-rule="evenodd" d="M169.269 224.532L169.535 224.406L169.723 224.548C169.782 224.593 169.785 224.668 169.729 224.716C169.674 224.764 169.58 224.766 169.521 224.721L169.269 224.532ZM168.616 224.839L168.882 224.714L169.158 224.923C169.218 224.968 169.221 225.044 169.165 225.091C169.109 225.14 169.016 225.142 168.956 225.097L168.616 224.839ZM167.962 225.147L168.228 225.021L168.594 225.299C168.654 225.344 168.657 225.419 168.601 225.467C168.545 225.515 168.452 225.517 168.392 225.472L167.962 225.147Z" fill="black"/>
<path d="M148.397 206.867L149.407 205.827L154.026 206.867L154.004 206.916C153.737 207.513 153.725 208.166 153.969 208.77L154.828 210.892C155.499 212.551 153.561 214.127 151.499 213.6L147.225 212.506C146.545 212.332 145.822 212.291 145.118 212.386C143.55 212.597 141.943 212.538 140.405 212.214L137.068 211.51C136.194 211.325 136.184 210.327 137.054 210.131L145.664 208.193C146.634 207.974 147.776 207.506 148.397 206.867Z" fill="white"/>
<path d="M154.843 210.931C155.469 212.575 153.545 214.123 151.499 213.6L147.225 212.506C146.544 212.332 145.822 212.291 145.118 212.386C143.55 212.597 141.943 212.538 140.405 212.214L137.068 211.51C136.194 211.325 136.183 210.327 137.054 210.131L137.371 210.059C140.645 211.111 148.264 212.625 154.843 210.931Z" fill="black"/>
<path fill-rule="evenodd" clip-rule="evenodd" d="M141.757 209.072L142.053 209.005L142.19 209.18C142.233 209.236 142.213 209.309 142.144 209.345C142.075 209.38 141.984 209.363 141.94 209.307L141.757 209.072ZM141.028 209.236L141.324 209.169L141.526 209.428C141.57 209.484 141.549 209.557 141.48 209.592C141.411 209.627 141.32 209.611 141.277 209.555L141.028 209.236ZM140.299 209.4L140.596 209.333L140.863 209.676C140.906 209.732 140.886 209.805 140.817 209.84C140.748 209.875 140.657 209.859 140.613 209.803L140.299 209.4Z" fill="black"/>
<path d="M163.378 175.772L182.617 173.231L187.401 182.089L189.277 181.022L194.572 190.764L181.499 194.768L181.758 195.562C182.709 198.482 182.701 201.551 181.734 204.468L180.451 208.337V219.903H175.377L171.049 195.358C170.53 192.414 172.252 189.506 175.418 187.981L184.423 183.646H165.944C165.944 186.018 165.019 188.33 163.3 190.254L162.454 191.201C161.841 191.886 161.33 192.627 160.929 193.408L154.03 206.869L149.396 205.845L155.912 181.499C156.705 178.534 159.667 176.263 163.378 175.772Z" fill="#FFA59A"/>
<path d="M172.207 201.93L171.049 195.358C170.529 192.414 172.252 189.505 175.418 187.981L184.422 183.646H182.77L187.16 181.643L187.401 182.089L189.277 181.022L189.887 182.146L175.581 189.107C173.677 190.258 170.584 195.055 173.439 205.033L172.207 201.93Z" fill="white"/>
<path d="M150.045 205.989L149.396 205.845L153.668 189.882L153.985 189.225L150.045 205.989Z" fill="white"/>
<path d="M182.708 174.189L162.636 176.831C160.846 177.166 157.075 178.537 155.945 181.376C156.787 178.472 159.718 176.256 163.378 175.772L182.617 173.231L182.91 173.773L182.708 174.189Z" fill="white"/>
<path d="M193.857 189.448L194.572 190.764L181.499 194.768L181.758 195.562C182.709 198.482 182.7 201.551 181.734 204.468L180.451 208.337V219.903H178.154V209.132C178.154 207.654 177.892 206.183 177.378 204.763C176.634 202.716 176.494 200.557 176.967 198.458L177.187 197.483C177.786 194.825 180.082 192.619 183.224 191.683L192.769 188.838L193.857 189.448Z" fill="#D78A80"/>
<path d="M184.001 183.646H165.944C165.944 186.018 165.019 188.33 163.3 190.254L162.453 191.201C161.841 191.886 161.329 192.627 160.929 193.408L154.03 206.869L152.075 206.437L156.782 193.432C157.133 192.462 157.311 191.457 157.311 190.446C157.311 188.418 158.006 186.428 159.32 184.698L159.744 184.139C161.15 182.288 163.649 181.159 166.341 181.159H185.858L187.095 181.825L184.001 183.646Z" fill="#D78A80"/>
<path d="M187.493 181.922L175.938 187.592C172.394 189.331 170.483 192.61 171.085 195.92L174.743 216.041" stroke="black" stroke-width="3" stroke-linecap="round"/>
<path d="M155.617 196.476L151.855 206.454L152.218 206.747L155.617 196.476Z" fill="white"/>
<path d="M182.496 173.121L195.38 170.659C198.526 170.883 209.807 170.423 215.055 170.165L214.916 176.098C214.768 182.426 209.391 187.893 201.785 189.449L194.347 190.971L189.319 181.304L186.94 182.463L182.496 173.121Z" fill="#C3A020"/>
<path fill-rule="evenodd" clip-rule="evenodd" d="M189.077 181.003C189.303 180.927 189.562 181.013 189.657 181.194L194.762 190.783C194.856 190.965 194.75 191.174 194.524 191.25C194.298 191.326 194.039 191.24 193.945 191.058L188.84 181.47C188.745 181.288 188.851 181.079 189.077 181.003Z" fill="black"/>
<path fill-rule="evenodd" clip-rule="evenodd" d="M214.628 170.667C214.872 170.662 215.075 170.819 215.081 171.016L215.223 176.208C215.393 182.373 210.343 187.841 202.97 189.476L194.581 191.337C194.345 191.39 194.101 191.278 194.036 191.088C193.972 190.897 194.11 190.701 194.346 190.649L202.736 188.788C209.717 187.24 214.498 182.061 214.338 176.224L214.195 171.032C214.19 170.834 214.384 170.671 214.628 170.667Z" fill="black"/>
<path fill-rule="evenodd" clip-rule="evenodd" d="M182.474 172.975C182.704 172.907 182.958 173.002 183.043 173.187L186.603 180.949C186.799 181.376 187.432 181.548 187.909 181.304L200.49 174.864C200.697 174.758 200.97 174.808 201.102 174.974C201.233 175.141 201.172 175.362 200.965 175.467L187.458 182.381C186.982 182.625 186.348 182.452 186.153 182.026L182.213 173.434C182.128 173.249 182.245 173.044 182.474 172.975Z" fill="black"/>
<path d="M219.86 142.978C214.981 141.378 210.417 138.717 209.328 137.664L202.424 138.67C198.859 139.189 195.825 141.065 194.276 143.707L193.345 145.295C191.797 147.937 191.783 150.998 193.309 153.649C193.649 154.238 193.852 154.871 193.911 155.519L195.283 170.669C198.968 171.467 210.001 170.699 215.057 170.216L214.359 155.61C214.308 154.547 214.643 153.494 215.322 152.581C215.916 151.783 216.407 150.938 216.789 150.059L219.86 142.978Z" fill="#F4F5FF"/>
<path d="M216.487 149.542L216.777 150.085C216.397 150.954 215.91 151.791 215.322 152.581C214.643 153.494 214.308 154.547 214.359 155.611L215.057 170.216L211.634 170.537L211.424 161.323C212.049 158.323 209.525 155.439 205.758 155.278C201.114 155.08 195.956 155.37 194.077 157.356L193.911 155.519C193.852 154.871 193.648 154.238 193.309 153.649C192.997 153.106 192.749 152.546 192.565 151.976C194.455 152.164 195.533 152.409 197.335 152.262C198.713 152.15 200.045 151.75 201.133 151.058C201.99 150.513 202.712 149.902 202.706 149.542C202.704 149.526 202.703 149.511 202.703 149.495C202.704 149.524 202.705 149.526 202.706 149.542C202.778 150.362 205.342 151.96 209.561 151.96C213.861 151.96 215.97 150.348 216.487 149.542Z" fill="#DAD1FF"/>
<path d="M193.132 152.029C194.899 152.322 198.57 152.608 201.18 151.074C200.183 152.115 197.59 153.696 193.132 152.029Z" fill="#B3A1FF"/>
<path d="M204.378 150.96C205.999 151.6 209.465 152.617 212.467 151.658C211.179 152.465 208.178 153.472 204.378 150.96Z" fill="#B3A1FF"/>
<path d="M223.766 148.025C223.615 146.774 222.841 144.801 220.659 143.395C219.613 142.721 218.225 142.459 216.91 142.661C215.204 142.923 213.147 143.729 212.52 146.209C211.844 148.888 214.617 151.121 216.475 152.125C216.789 152.296 217.004 152.563 217.069 152.864C217.849 156.477 221.819 158.931 223.796 159.643C223.603 159.671 222.775 159.805 221.003 160.112C210.297 162.153 205.593 161.2 204.23 160.69C202.867 160.18 199.315 158.776 197.173 159.945C195.46 160.879 196.265 162.932 196.881 163.842C198.098 165.776 201.991 164.419 204.765 163.842C207.539 163.264 213.038 164.812 218.927 165.832C224.816 166.853 233.109 167.081 233.84 163.842C234.339 161.626 232.846 159.942 231.687 159.119C231.365 158.89 231.164 158.561 231.167 158.215C231.201 153.96 226.956 150.4 224.326 148.846C224 148.654 223.805 148.35 223.766 148.025Z" fill="#FFA59A"/>
<path d="M221.412 143.946C223.025 145.283 223.634 146.93 223.766 148.025C223.768 148.045 223.771 148.066 223.775 148.086C223.83 148.387 224.02 148.665 224.326 148.846C224.655 149.04 225.009 149.266 225.376 149.52C227.95 151.3 231.196 154.492 231.166 158.214C231.166 158.236 231.167 158.258 231.168 158.279C231.189 158.602 231.385 158.904 231.687 159.119C231.832 159.222 231.982 159.338 232.133 159.467C233.188 160.371 234.276 161.903 233.839 163.842C233.292 166.268 228.503 166.749 223.659 166.408C234.641 165.988 231.831 161.473 230.243 159.914C229.088 153.918 226.522 151.627 225.383 151.231C223.766 150.443 221.613 151.007 220.458 152.213C219.258 153.465 218.965 155.059 219.068 156.462C218.355 155.696 217.744 154.814 217.36 153.83C217.22 153.427 217.117 153.089 217.069 152.864C217.004 152.563 216.789 152.295 216.474 152.125C215.185 151.428 213.454 150.139 212.742 148.519C212.687 148.393 212.637 148.264 212.595 148.133C214.4 149.692 217.026 150.993 219.633 149.632C222.784 147.987 222.255 145.425 221.331 143.879C221.358 143.902 221.386 143.924 221.412 143.946Z" fill="#D78A80"/>
<path d="M233.813 161.997L230.226 158.651C229.311 158.407 226.134 158.307 223.594 159.567C223.664 159.594 223.73 159.619 223.795 159.643C223.602 159.671 222.774 159.804 221.003 160.112C216.177 161.032 212.57 161.344 209.939 161.362C209.872 161.378 209.819 161.393 209.78 161.407C212.2 161.624 218.114 161.836 222.411 160.944C227.782 159.828 230.549 163.635 226.48 166.326L231.718 165.787C232.861 165.364 233.638 164.735 233.839 163.842C233.989 163.176 233.959 162.558 233.813 161.997Z" fill="#D78A80"/>
<path d="M233.933 162.773C233.683 163.725 232.578 164.622 229.928 165.183C223.774 166.486 214.479 165.054 210.601 164.175L210.609 164.225C211.722 164.424 212.914 164.665 214.16 164.917C215.686 165.224 217.291 165.549 218.927 165.832C224.815 166.853 233.109 167.081 233.839 163.842C233.923 163.47 233.951 163.113 233.933 162.773Z" fill="white"/>
<path d="M196.819 163.042C196.982 163.029 197.126 163.124 197.143 163.255L197.151 163.319C197.247 164.08 198.04 164.658 198.988 164.658H199.36C200.803 164.658 202.232 164.428 203.564 163.981C204.676 163.608 205.888 163.475 207.08 163.594C207.242 163.61 207.351 163.733 207.324 163.862C207.297 163.992 207.145 164.079 206.983 164.064C205.9 163.96 204.801 164.082 203.791 164.421C202.386 164.892 200.881 165.134 199.36 165.134H198.988C197.737 165.134 196.69 164.371 196.564 163.367L196.555 163.303C196.539 163.172 196.657 163.055 196.819 163.042Z" fill="black"/>
<path d="M210.317 160.707H209.782C209.456 160.707 209.191 160.92 209.191 161.183V164.363C209.191 164.626 209.456 164.839 209.782 164.839H210.317C210.643 164.839 210.907 164.626 210.907 164.363V161.183C210.907 160.92 210.643 160.707 210.317 160.707Z" fill="#512CED"/>
<path fill-rule="evenodd" clip-rule="evenodd" d="M199.988 159.238C201.359 159.313 202.685 159.751 203.492 160.133C203.633 160.199 203.68 160.345 203.597 160.458C203.515 160.572 203.334 160.61 203.194 160.543C202.442 160.189 201.204 159.782 199.948 159.713C198.703 159.645 197.478 159.908 196.65 160.848C196.268 161.372 196.211 161.803 196.307 162.15C196.405 162.503 196.671 162.799 196.999 163.031C197.477 163.371 198.168 163.451 198.912 163.451C199.579 163.451 200.12 163.015 200.12 162.477V162.197C200.12 161.617 199.537 161.147 198.818 161.147C198.246 161.147 197.783 161.521 197.783 161.982V162.395C197.783 162.526 197.651 162.633 197.488 162.633C197.325 162.633 197.193 162.526 197.193 162.395V161.982C197.193 161.258 197.921 160.671 198.818 160.671C199.863 160.671 200.71 161.354 200.71 162.197V162.477C200.71 163.278 199.905 163.927 198.912 163.927C198.148 163.927 197.262 163.852 196.609 163.389C196.218 163.112 195.864 162.733 195.731 162.253C195.596 161.768 195.696 161.211 196.148 160.597L196.154 160.589L196.16 160.581C197.145 159.456 198.608 159.163 199.988 159.238Z" fill="black"/>
<path d="M224.41 148.896C223.599 148.237 222.683 148.493 222.494 148.557L222.493 148.557C229.188 151.427 230.592 156.455 230.458 158.61L231.262 158.745C231.268 158.718 231.273 158.69 231.278 158.663C231.205 158.522 231.165 158.37 231.166 158.214C231.2 154.005 227.044 150.475 224.41 148.896Z" fill="white"/>
<path d="M220.658 143.395C222.841 144.801 223.615 146.774 223.766 148.025C223.796 148.275 223.918 148.512 224.121 148.696C224.137 148.781 224.152 148.866 224.166 148.953L223.397 148.682C223.301 147.52 222.34 144.722 219.266 142.831C219.586 142.893 219.992 143.029 220.434 143.26C220.511 143.303 220.586 143.348 220.658 143.395Z" fill="white"/>
<path d="M213.569 125.675C213.454 128.215 212.776 129.996 212.04 130.828L209.758 130.642L209.634 126.805C211.117 126.844 212.875 126.068 213.569 125.675Z" fill="#FFA59A"/>
<path d="M213.569 125.675C213.454 128.215 212.776 129.996 212.04 130.828L209.758 130.642L209.634 126.805C211.117 126.844 212.875 126.068 213.569 125.675Z" fill="url(#paint10_linear_244_351)"/>
<path d="M206.395 120.502C200.922 120.22 198.632 123.73 198.171 125.521C204.701 128.169 212.195 126.904 213.564 125.726C213.455 124.102 211.868 120.784 206.395 120.502Z" fill="#3F0929"/>
<path d="M197.814 135.288L198.153 125.532C199.539 126.149 203.852 127.274 210.023 126.845V129.737C210.023 129.794 210.089 129.835 210.157 129.82L210.541 129.738C211.297 129.576 212.039 130.036 212.039 130.667C212.039 131.198 211.505 131.628 210.847 131.628H210.348L209.184 139.422C208.797 142.01 205.927 143.881 202.708 143.642C201.435 143.548 200.527 142.606 200.725 141.588L201.426 138C199.455 138.158 197.758 136.885 197.814 135.288Z" fill="#FFA59A"/>
<path fill-rule="evenodd" clip-rule="evenodd" d="M199.833 128.556C199.502 128.602 199.285 128.74 199.226 128.828C199.154 128.936 198.985 128.977 198.85 128.918C198.715 128.86 198.665 128.724 198.738 128.615C198.904 128.367 199.303 128.175 199.74 128.115C200.196 128.052 200.74 128.124 201.224 128.449C201.341 128.529 201.357 128.669 201.259 128.764C201.161 128.859 200.986 128.872 200.868 128.793C200.521 128.559 200.145 128.513 199.833 128.556Z" fill="black"/>
<path fill-rule="evenodd" clip-rule="evenodd" d="M204.617 128.71C204.282 128.723 204.045 128.838 203.974 128.92C203.885 129.02 203.712 129.044 203.587 128.972C203.462 128.9 203.433 128.761 203.522 128.66C203.724 128.43 204.15 128.28 204.592 128.263C205.054 128.246 205.583 128.372 206.014 128.743C206.118 128.833 206.112 128.975 206 129.059C205.888 129.144 205.713 129.139 205.608 129.049C205.299 128.782 204.934 128.699 204.617 128.71Z" fill="black"/>
<path fill-rule="evenodd" clip-rule="evenodd" d="M202.108 131.399C201.973 131.402 201.868 131.493 201.872 131.602L201.895 132.21C201.684 132.231 201.487 132.284 201.325 132.375C201.091 132.506 200.945 132.709 200.937 132.962C200.921 133.475 201.495 133.855 202.138 133.868C202.273 133.871 202.384 133.785 202.388 133.677C202.391 133.568 202.285 133.478 202.15 133.475C201.706 133.466 201.417 133.215 201.425 132.972C201.429 132.847 201.494 132.759 201.604 132.698C201.721 132.632 201.904 132.589 202.141 132.594C202.208 132.595 202.272 132.574 202.32 132.536C202.367 132.498 202.392 132.445 202.39 132.391L202.359 131.589C202.355 131.481 202.242 131.396 202.108 131.399Z" fill="black"/>
<path d="M204.095 134.779C204.026 135.411 203.331 135.878 202.541 135.822C201.997 135.784 201.55 135.508 201.347 135.132C201.294 135.033 201.375 134.926 201.505 134.898L203.815 134.419C203.944 134.392 204.079 134.453 204.093 134.561C204.102 134.632 204.103 134.705 204.095 134.779Z" fill="white"/>
<path d="M204.174 130.833C203.903 130.827 203.692 130.566 203.702 130.248C203.712 129.93 203.939 129.677 204.21 129.683C204.481 129.688 204.692 129.95 204.682 130.268C204.672 130.586 204.445 130.839 204.174 130.833Z" fill="black"/>
<path d="M200.114 130.793C199.843 130.797 199.618 130.543 199.61 130.226C199.602 129.908 199.816 129.647 200.086 129.643C200.357 129.639 200.583 129.893 200.59 130.211C200.598 130.528 200.385 130.789 200.114 130.793Z" fill="black"/>
<path d="M201.072 139.813L201.426 138C202.525 137.983 205.098 137.766 206.649 136.834C206.488 137.668 205.144 139.403 201.072 139.813Z" fill="#D78A80"/>
<path fill-rule="evenodd" clip-rule="evenodd" d="M165.52 144.282C165.948 143.801 166.777 143.692 167.373 144.036L171.443 146.392C172.039 146.737 172.176 147.406 171.748 147.887C171.32 148.368 170.49 148.478 169.894 148.133L165.824 145.777C165.228 145.432 165.092 144.763 165.52 144.282Z" fill="white"/>
<path d="M171.465 156.101L173.018 156.815L181.375 143.774L179.283 142.81L171.451 148.232L171.465 156.101Z" fill="#232323"/>
<path d="M180.029 151.227C177.88 154.901 174.047 157.083 171.467 156.102C168.887 155.12 168.538 151.346 170.687 147.672C172.836 143.998 176.669 141.816 179.249 142.797C181.829 143.779 182.178 147.553 180.029 151.227Z" fill="#232323"/>
<path d="M173.492 157.026C176.115 158.024 179.984 155.855 182.133 152.181C184.282 148.507 183.898 144.72 181.275 143.722C178.652 142.724 174.783 144.893 172.634 148.567C170.485 152.241 170.87 156.028 173.492 157.026Z" fill="#474747"/>
<path d="M176.252 153.448C177.232 153.821 178.688 152.992 179.504 151.597C180.32 150.202 180.187 148.769 179.207 148.396C178.228 148.023 176.772 148.852 175.956 150.247C175.14 151.642 175.273 153.075 176.252 153.448Z" fill="black"/>
<path fill-rule="evenodd" clip-rule="evenodd" d="M147.14 134.149C147.554 133.66 148.381 133.535 148.987 133.869L155.306 137.355C155.912 137.689 156.067 138.356 155.653 138.844C155.238 139.333 154.412 139.458 153.806 139.124L147.487 135.638C146.881 135.304 146.726 134.637 147.14 134.149Z" fill="white"/>
<path d="M154.349 147.386L155.902 148.099L164.259 135.059L162.167 134.095L154.335 139.517L154.349 147.386Z" fill="#232323"/>
<path d="M162.914 142.512C160.764 146.185 156.931 148.368 154.351 147.387C151.771 146.405 151.422 142.631 153.571 138.957C155.72 135.283 159.553 133.1 162.133 134.082C164.713 135.063 165.062 138.838 162.914 142.512Z" fill="#232323"/>
<path d="M156.377 148.311C159 149.309 162.868 147.14 165.017 143.466C167.166 139.792 166.782 136.004 164.159 135.006C161.536 134.008 157.668 136.178 155.519 139.852C153.37 143.526 153.754 147.313 156.377 148.311Z" fill="#474747"/>
<path d="M159.137 144.733C160.116 145.106 161.572 144.277 162.388 142.882C163.204 141.487 163.071 140.053 162.092 139.681C161.112 139.308 159.656 140.137 158.84 141.532C158.024 142.927 158.157 144.36 159.137 144.733Z" fill="black"/>
<path fill-rule="evenodd" clip-rule="evenodd" d="M176.617 150.409C177.032 149.92 177.858 149.795 178.464 150.129L186.104 154.343C186.709 154.677 186.864 155.344 186.45 155.832C186.036 156.321 185.209 156.446 184.604 156.112L176.964 151.898C176.358 151.564 176.203 150.897 176.617 150.409Z" fill="white"/>
<path fill-rule="evenodd" clip-rule="evenodd" d="M159.782 141.118C160.198 140.63 161.025 140.508 161.629 140.843L167.353 144.025C167.957 144.361 168.109 145.028 167.693 145.515C167.276 146.002 166.449 146.125 165.845 145.789L160.121 142.608C159.517 142.272 159.365 141.605 159.782 141.118Z" fill="white"/>
<path d="M170.785 145.977C168.24 146.128 166.993 147.478 166.687 148.133C165.391 145.867 168.879 144.775 170.785 144.513C172.327 144.45 171.917 145.883 170.785 145.977Z" fill="#B6726A"/>
<path d="M170.785 145.025C168.24 145.176 166.993 146.525 166.687 147.181C165.391 144.914 168.879 143.823 170.785 143.561C172.327 143.498 171.917 144.93 170.785 145.025Z" fill="#D4887F"/>
<path d="M170.785 144.072C168.24 144.223 166.993 145.573 166.687 146.229C165.391 143.962 168.879 142.871 170.785 142.608C172.327 142.546 171.917 143.978 170.785 144.072Z" fill="#E19187"/>
<path d="M166.975 144.105L167.379 143.782L166.863 143.103C165.11 143.805 164.57 144.721 164.349 145.241L165.657 148.7L167.868 147.497L166.61 145.977C166.142 145.056 166.783 144.28 166.975 144.105Z" fill="#FFA59A"/>
</g>
</g>
<defs>
<filter id="filter0_f_244_351" x="37.9727" y="35.9893" width="14.8613" height="14.5175" filterUnits="userSpaceOnUse" color-interpolation-filters="sRGB">
<feFlood flood-opacity="0" result="BackgroundImageFix"/>
<feBlend mode="normal" in="SourceGraphic" in2="BackgroundImageFix" result="shape"/>
<feGaussianBlur stdDeviation="3" result="effect1_foregroundBlur_244_351"/>
</filter>
<filter id="filter1_f_244_351" x="74.2266" y="35.9891" width="14.8613" height="14.5175" filterUnits="userSpaceOnUse" color-interpolation-filters="sRGB">
<feFlood flood-opacity="0" result="BackgroundImageFix"/>
<feBlend mode="normal" in="SourceGraphic" in2="BackgroundImageFix" result="shape"/>
<feGaussianBlur stdDeviation="3" result="effect1_foregroundBlur_244_351"/>
</filter>
<filter id="filter2_f_244_351" x="103.586" y="35.9893" width="14.8613" height="14.5175" filterUnits="userSpaceOnUse" color-interpolation-filters="sRGB">
<feFlood flood-opacity="0" result="BackgroundImageFix"/>
<feBlend mode="normal" in="SourceGraphic" in2="BackgroundImageFix" result="shape"/>
<feGaussianBlur stdDeviation="3" result="effect1_foregroundBlur_244_351"/>
</filter>
<filter id="filter3_f_244_351" x="338.56" y="35.9891" width="14.8613" height="14.5175" filterUnits="userSpaceOnUse" color-interpolation-filters="sRGB">
<feFlood flood-opacity="0" result="BackgroundImageFix"/>
<feBlend mode="normal" in="SourceGraphic" in2="BackgroundImageFix" result="shape"/>
<feGaussianBlur stdDeviation="3" result="effect1_foregroundBlur_244_351"/>
</filter>
<filter id="filter4_f_244_351" x="302.304" y="35.9893" width="14.8613" height="14.5175" filterUnits="userSpaceOnUse" color-interpolation-filters="sRGB">
<feFlood flood-opacity="0" result="BackgroundImageFix"/>
<feBlend mode="normal" in="SourceGraphic" in2="BackgroundImageFix" result="shape"/>
<feGaussianBlur stdDeviation="3" result="effect1_foregroundBlur_244_351"/>
</filter>
<filter id="filter5_f_244_351" x="272.946" y="35.9891" width="14.8613" height="14.5175" filterUnits="userSpaceOnUse" color-interpolation-filters="sRGB">
<feFlood flood-opacity="0" result="BackgroundImageFix"/>
<feBlend mode="normal" in="SourceGraphic" in2="BackgroundImageFix" result="shape"/>
<feGaussianBlur stdDeviation="3" result="effect1_foregroundBlur_244_351"/>
</filter>
<filter id="filter6_f_244_351" x="8.58447" y="33.1044" width="14.8613" height="14.5175" filterUnits="userSpaceOnUse" color-interpolation-filters="sRGB">
<feFlood flood-opacity="0" result="BackgroundImageFix"/>
<feBlend mode="normal" in="SourceGraphic" in2="BackgroundImageFix" result="shape"/>
<feGaussianBlur stdDeviation="3" result="effect1_foregroundBlur_244_351"/>
</filter>
<filter id="filter7_f_244_351" x="-8.67725" y="26.6759" width="14.8613" height="14.5175" filterUnits="userSpaceOnUse" color-interpolation-filters="sRGB">
<feFlood flood-opacity="0" result="BackgroundImageFix"/>
<feBlend mode="normal" in="SourceGraphic" in2="BackgroundImageFix" result="shape"/>
<feGaussianBlur stdDeviation="3" result="effect1_foregroundBlur_244_351"/>
</filter>
<filter id="filter8_f_244_351" x="366.977" y="33.1042" width="14.8613" height="14.5175" filterUnits="userSpaceOnUse" color-interpolation-filters="sRGB">
<feFlood flood-opacity="0" result="BackgroundImageFix"/>
<feBlend mode="normal" in="SourceGraphic" in2="BackgroundImageFix" result="shape"/>
<feGaussianBlur stdDeviation="3" result="effect1_foregroundBlur_244_351"/>
</filter>
<linearGradient id="paint0_linear_244_351" x1="187.5" y1="0" x2="187.5" y2="354.374" gradientUnits="userSpaceOnUse">
<stop stop-color="#3CBBDB"/>
<stop offset="1" stop-color="#E0BF46"/>
</linearGradient>
<linearGradient id="paint1_linear_244_351" x1="46.7505" y1="40.5199" x2="51.2905" y2="46.149" gradientUnits="userSpaceOnUse">
<stop stop-color="#363636"/>
<stop offset="1"/>
</linearGradient>
<linearGradient id="paint2_linear_244_351" x1="80.309" y1="40.52" x2="75.7691" y2="46.1491" gradientUnits="userSpaceOnUse">
<stop stop-color="#363636"/>
<stop offset="1"/>
</linearGradient>
<linearGradient id="paint3_linear_244_351" x1="112.364" y1="40.5199" x2="116.904" y2="46.149" gradientUnits="userSpaceOnUse">
<stop stop-color="#363636"/>
<stop offset="1"/>
</linearGradient>
<linearGradient id="paint4_linear_244_351" x1="344.64" y1="40.5198" x2="340.101" y2="46.149" gradientUnits="userSpaceOnUse">
<stop stop-color="#363636"/>
<stop offset="1"/>
</linearGradient>
<linearGradient id="paint5_linear_244_351" x1="311.083" y1="40.5199" x2="315.623" y2="46.149" gradientUnits="userSpaceOnUse">
<stop stop-color="#363636"/>
<stop offset="1"/>
</linearGradient>
<linearGradient id="paint6_linear_244_351" x1="279.026" y1="40.5195" x2="274.488" y2="46.1487" gradientUnits="userSpaceOnUse">
<stop stop-color="#363636"/>
<stop offset="1"/>
</linearGradient>
<linearGradient id="paint7_linear_244_351" x1="14.6675" y1="37.6351" x2="10.1274" y2="43.2641" gradientUnits="userSpaceOnUse">
<stop stop-color="#363636"/>
<stop offset="1"/>
</linearGradient>
<linearGradient id="paint8_linear_244_351" x1="-2.75009" y1="31.2065" x2="-7.29006" y2="36.8356" gradientUnits="userSpaceOnUse">
<stop stop-color="#363636"/>
<stop offset="1"/>
</linearGradient>
<linearGradient id="paint9_linear_244_351" x1="375.755" y1="37.6349" x2="380.295" y2="43.264" gradientUnits="userSpaceOnUse">
<stop stop-color="#363636"/>
<stop offset="1"/>
</linearGradient>
<linearGradient id="paint10_linear_244_351" x1="211.602" y1="125.675" x2="211.602" y2="132.834" gradientUnits="userSpaceOnUse">
<stop stop-color="#3F0929"/>
<stop offset="1" stop-color="#3F0929" stop-opacity="0"/>
</linearGradient>
</defs>
</svg>
